<mxfile host="app.diagrams.net" modified="2023-09-23T22:08:54.171Z" agent="Mozilla/5.0 (Macintosh; Intel Mac OS X 10_15_7) AppleWebKit/605.1.15 (KHTML, like Gecko) Version/16.6 Safari/605.1.15" etag="DiAb2AZbLcDtcXww4oHN" version="21.8.0" type="device">
  <diagram name="Page-1" id="QEJr0625KKfx8x66nqp_">
    <mxGraphModel dx="2051" dy="783" grid="1" gridSize="10" guides="1" tooltips="1" connect="1" arrows="1" fold="1" page="1" pageScale="1" pageWidth="827" pageHeight="1169" math="0" shadow="0">
      <root>
        <mxCell id="0" />
        <mxCell id="1" parent="0" />
        <mxCell id="0yja2uZejNiCgg6DEzDY-44" value="Private subnet" style="points=[[0,0],[0.25,0],[0.5,0],[0.75,0],[1,0],[1,0.25],[1,0.5],[1,0.75],[1,1],[0.75,1],[0.5,1],[0.25,1],[0,1],[0,0.75],[0,0.5],[0,0.25]];outlineConnect=0;gradientColor=none;html=1;whiteSpace=wrap;fontSize=12;fontStyle=0;container=1;pointerEvents=0;collapsible=0;recursiveResize=0;shape=mxgraph.aws4.group;grIcon=mxgraph.aws4.group_security_group;grStroke=0;strokeColor=#147EBA;fillColor=#E6F2F8;verticalAlign=top;align=left;spacingLeft=30;fontColor=#147EBA;dashed=0;" vertex="1" parent="1">
          <mxGeometry x="510" y="519.5" width="236" height="138.5" as="geometry" />
        </mxCell>
        <mxCell id="0yja2uZejNiCgg6DEzDY-21" value="" style="rounded=0;whiteSpace=wrap;html=1;fillColor=#E9F3E6;strokeColor=none;" vertex="1" parent="1">
          <mxGeometry x="382" y="360" width="138" height="130" as="geometry" />
        </mxCell>
        <mxCell id="0yja2uZejNiCgg6DEzDY-2" value="" style="rounded=1;arcSize=2;dashed=1;strokeColor=#F59D56;fillColor=none;gradientColor=none;dashPattern=8 4;strokeWidth=2;fontFamily=Verdana;" vertex="1" parent="1">
          <mxGeometry y="200" width="830" height="670" as="geometry" />
        </mxCell>
        <mxCell id="0yja2uZejNiCgg6DEzDY-3" value="&lt;font color=&quot;#ff3333&quot; style=&quot;font-size: 15px;&quot;&gt;&lt;b&gt;VPC&lt;/b&gt;&lt;/font&gt;" style="points=[[0,0],[0.25,0],[0.5,0],[0.75,0],[1,0],[1,0.25],[1,0.5],[1,0.75],[1,1],[0.75,1],[0.5,1],[0.25,1],[0,1],[0,0.75],[0,0.5],[0,0.25]];outlineConnect=0;gradientColor=none;html=1;whiteSpace=wrap;fontSize=12;fontStyle=0;container=1;pointerEvents=0;collapsible=0;recursiveResize=0;shape=mxgraph.aws4.group;grIcon=mxgraph.aws4.group_vpc;strokeColor=#248814;fillColor=none;verticalAlign=top;align=left;spacingLeft=30;fontColor=#AAB7B8;dashed=0;fontFamily=Verdana;" vertex="1" parent="1">
          <mxGeometry x="67" y="350" width="746" height="500" as="geometry" />
        </mxCell>
        <mxCell id="0yja2uZejNiCgg6DEzDY-17" value="Public subnet" style="points=[[0,0],[0.25,0],[0.5,0],[0.75,0],[1,0],[1,0.25],[1,0.5],[1,0.75],[1,1],[0.75,1],[0.5,1],[0.25,1],[0,1],[0,0.75],[0,0.5],[0,0.25]];outlineConnect=0;gradientColor=none;html=1;whiteSpace=wrap;fontSize=12;fontStyle=0;container=1;pointerEvents=0;collapsible=0;recursiveResize=0;shape=mxgraph.aws4.group;grIcon=mxgraph.aws4.group_security_group;grStroke=0;strokeColor=#248814;fillColor=#E9F3E6;verticalAlign=top;align=left;spacingLeft=30;fontColor=#248814;dashed=0;" vertex="1" parent="0yja2uZejNiCgg6DEzDY-3">
          <mxGeometry x="84" y="10" width="236" height="130" as="geometry" />
        </mxCell>
        <mxCell id="0yja2uZejNiCgg6DEzDY-22" value="sa-east-1" style="sketch=0;outlineConnect=0;gradientColor=none;html=1;whiteSpace=wrap;fontSize=12;fontStyle=0;shape=mxgraph.aws4.group;grIcon=mxgraph.aws4.group_availability_zone;strokeColor=#545B64;fillColor=none;verticalAlign=top;align=left;spacingLeft=30;fontColor=#545B64;dashed=1;fontFamily=Verdana;" vertex="1" parent="0yja2uZejNiCgg6DEzDY-3">
          <mxGeometry x="73" y="-26" width="257" height="517" as="geometry" />
        </mxCell>
        <mxCell id="0yja2uZejNiCgg6DEzDY-23" value="" style="outlineConnect=0;dashed=0;verticalLabelPosition=bottom;verticalAlign=top;align=center;html=1;shape=mxgraph.aws3.vpc_nat_gateway;fillColor=#F58534;gradientColor=none;" vertex="1" parent="0yja2uZejNiCgg6DEzDY-3">
          <mxGeometry x="153" y="50" width="52" height="57" as="geometry" />
        </mxCell>
        <mxCell id="0yja2uZejNiCgg6DEzDY-24" value="NAT" style="text;html=1;strokeColor=none;fillColor=none;align=center;verticalAlign=middle;whiteSpace=wrap;rounded=0;fontFamily=Verdana;" vertex="1" parent="0yja2uZejNiCgg6DEzDY-3">
          <mxGeometry x="150" y="102" width="60" height="30" as="geometry" />
        </mxCell>
        <mxCell id="0yja2uZejNiCgg6DEzDY-40" value="" style="rounded=1;arcSize=0;dashed=1;strokeColor=#ff0000;fillColor=none;gradientColor=none;dashPattern=8 4;strokeWidth=2;" vertex="1" parent="0yja2uZejNiCgg6DEzDY-3">
          <mxGeometry x="339" y="8" width="90" height="107" as="geometry" />
        </mxCell>
        <mxCell id="0yja2uZejNiCgg6DEzDY-43" value="Private subnet" style="points=[[0,0],[0.25,0],[0.5,0],[0.75,0],[1,0],[1,0.25],[1,0.5],[1,0.75],[1,1],[0.75,1],[0.5,1],[0.25,1],[0,1],[0,0.75],[0,0.5],[0,0.25]];outlineConnect=0;gradientColor=none;html=1;whiteSpace=wrap;fontSize=12;fontStyle=0;container=1;pointerEvents=0;collapsible=0;recursiveResize=0;shape=mxgraph.aws4.group;grIcon=mxgraph.aws4.group_security_group;grStroke=0;strokeColor=#147EBA;fillColor=#E6F2F8;verticalAlign=top;align=left;spacingLeft=30;fontColor=#147EBA;dashed=0;" vertex="1" parent="0yja2uZejNiCgg6DEzDY-3">
          <mxGeometry x="84" y="171.5" width="245.4" height="138.5" as="geometry" />
        </mxCell>
        <mxCell id="0yja2uZejNiCgg6DEzDY-45" value="" style="sketch=0;outlineConnect=0;fontColor=#232F3E;gradientColor=none;fillColor=#ED7100;strokeColor=none;dashed=0;verticalLabelPosition=bottom;verticalAlign=top;align=center;html=1;fontSize=12;fontStyle=0;aspect=fixed;pointerEvents=1;shape=mxgraph.aws4.a1_instance;" vertex="1" parent="0yja2uZejNiCgg6DEzDY-3">
          <mxGeometry x="153" y="217.63" width="64.75" height="64.75" as="geometry" />
        </mxCell>
        <mxCell id="0yja2uZejNiCgg6DEzDY-47" value="" style="rounded=1;arcSize=7;dashed=1;fillColor=none;gradientColor=none;dashPattern=8 3 1 3;strokeWidth=2;" vertex="1" parent="0yja2uZejNiCgg6DEzDY-3">
          <mxGeometry x="140" y="205.25" width="470" height="89.5" as="geometry" />
        </mxCell>
        <mxCell id="0yja2uZejNiCgg6DEzDY-48" value="" style="sketch=0;outlineConnect=0;fontColor=#232F3E;gradientColor=none;fillColor=#ED7100;strokeColor=none;dashed=0;verticalLabelPosition=bottom;verticalAlign=top;align=center;html=1;fontSize=12;fontStyle=0;aspect=fixed;pointerEvents=1;shape=mxgraph.aws4.auto_scaling2;" vertex="1" parent="0yja2uZejNiCgg6DEzDY-3">
          <mxGeometry x="359" y="214.63" width="48" height="48" as="geometry" />
        </mxCell>
        <mxCell id="0yja2uZejNiCgg6DEzDY-49" value="Auto&lt;br&gt;Scaling Group" style="text;html=1;strokeColor=none;fillColor=none;align=center;verticalAlign=middle;whiteSpace=wrap;rounded=0;fontFamily=Verdana;" vertex="1" parent="0yja2uZejNiCgg6DEzDY-3">
          <mxGeometry x="337.5" y="260.63" width="91" height="30" as="geometry" />
        </mxCell>
        <mxCell id="0yja2uZejNiCgg6DEzDY-50" value="{private EC2}" style="text;html=1;strokeColor=none;fillColor=none;align=center;verticalAlign=middle;whiteSpace=wrap;rounded=0;fontFamily=Verdana;" vertex="1" parent="0yja2uZejNiCgg6DEzDY-3">
          <mxGeometry x="206.75" y="261.63" width="91" height="30" as="geometry" />
        </mxCell>
        <mxCell id="0yja2uZejNiCgg6DEzDY-53" value="Private subnet" style="points=[[0,0],[0.25,0],[0.5,0],[0.75,0],[1,0],[1,0.25],[1,0.5],[1,0.75],[1,1],[0.75,1],[0.5,1],[0.25,1],[0,1],[0,0.75],[0,0.5],[0,0.25]];outlineConnect=0;gradientColor=none;html=1;whiteSpace=wrap;fontSize=12;fontStyle=0;container=1;pointerEvents=0;collapsible=0;recursiveResize=0;shape=mxgraph.aws4.group;grIcon=mxgraph.aws4.group_security_group;grStroke=0;strokeColor=#147EBA;fillColor=#E6F2F8;verticalAlign=top;align=left;spacingLeft=30;fontColor=#147EBA;dashed=0;" vertex="1" parent="0yja2uZejNiCgg6DEzDY-3">
          <mxGeometry x="79.30000000000001" y="339" width="245.4" height="138.5" as="geometry" />
        </mxCell>
        <mxCell id="0yja2uZejNiCgg6DEzDY-58" value="{RDS Instance}" style="text;html=1;strokeColor=none;fillColor=none;align=center;verticalAlign=middle;whiteSpace=wrap;rounded=0;fontFamily=Verdana;" vertex="1" parent="0yja2uZejNiCgg6DEzDY-53">
          <mxGeometry x="138.45" y="72" width="101.55" height="30" as="geometry" />
        </mxCell>
        <mxCell id="0yja2uZejNiCgg6DEzDY-55" value="" style="outlineConnect=0;dashed=0;verticalLabelPosition=bottom;verticalAlign=top;align=center;html=1;shape=mxgraph.aws3.rds_db_instance;fillColor=#2E73B8;gradientColor=none;" vertex="1" parent="0yja2uZejNiCgg6DEzDY-3">
          <mxGeometry x="160.5" y="390" width="49.5" height="66" as="geometry" />
        </mxCell>
        <mxCell id="0yja2uZejNiCgg6DEzDY-63" value="" style="endArrow=none;html=1;rounded=0;strokeWidth=2;startArrow=classicThin;startFill=0;exitX=0.155;exitY=0.388;exitDx=0;exitDy=0;exitPerimeter=0;" edge="1" parent="0yja2uZejNiCgg6DEzDY-3">
          <mxGeometry width="50" height="50" relative="1" as="geometry">
            <mxPoint x="219.8499999999999" y="239.9760000000001" as="sourcePoint" />
            <mxPoint x="365" y="239" as="targetPoint" />
          </mxGeometry>
        </mxCell>
        <mxCell id="0yja2uZejNiCgg6DEzDY-4" value="" style="sketch=0;points=[[0,0,0],[0.25,0,0],[0.5,0,0],[0.75,0,0],[1,0,0],[0,1,0],[0.25,1,0],[0.5,1,0],[0.75,1,0],[1,1,0],[0,0.25,0],[0,0.5,0],[0,0.75,0],[1,0.25,0],[1,0.5,0],[1,0.75,0]];outlineConnect=0;fontColor=#232F3E;fillColor=#DD344C;strokeColor=#ffffff;dashed=0;verticalLabelPosition=bottom;verticalAlign=top;align=center;html=1;fontSize=12;fontStyle=0;aspect=fixed;shape=mxgraph.aws4.resourceIcon;resIcon=mxgraph.aws4.certificate_manager_3;fontFamily=Verdana;" vertex="1" parent="1">
          <mxGeometry x="8" y="393" width="50" height="50" as="geometry" />
        </mxCell>
        <mxCell id="0yja2uZejNiCgg6DEzDY-5" value="AWS Cerfificate Manager (ACM)" style="text;html=1;strokeColor=none;fillColor=none;align=center;verticalAlign=middle;whiteSpace=wrap;rounded=0;fontFamily=Verdana;" vertex="1" parent="1">
          <mxGeometry x="1" y="459" width="60" height="30" as="geometry" />
        </mxCell>
        <mxCell id="0yja2uZejNiCgg6DEzDY-6" value="" style="shape=image;verticalLabelPosition=bottom;labelBackgroundColor=default;verticalAlign=top;aspect=fixed;imageAspect=0;image=data:image/png,iVBORw0KGgoAAAANSUhEUgAAASwAAAEsCAYAAAB5fY51AAAACXBIWXMAACxKAAAsSgF3enRNAAAgAElEQVR4nO2debAlZ3ne+x4NkhAzEmKzZmRCnCAku8oOBgm8EIwgrhQVs7gSEwdhkQoEgyEkxoTYTkxYgk1BBVM2XqBCErAwxHHZrJWyK2L5I3FFIMhmkNjiBY1EIrPMjIQkhE6q78yde7qfpb/+zrn3nuV5qlQ6/b7v8/bX/fX5TZ++3edsffG7r5w2QltbWzzR10zZVjPeg4tb9KVvoRuaFu1GQoh6tuRCTVknKYZAVOHZsntJa8ZnPXI/G5f0DCZ5qnBnVHlsGU8We/Qhqz2Vc19xiPn3sk3pbVQq9UwgMqPpVLKsVzj7crwHF6f0pW+hG5oW7UZCiHqmcqGmrJMUQyCq8EztXtKa8VmP3M/GJT2DSZ4q3BlVHlvGk8UefchqT+XcVxxi/r1sU3oblUo9FlhNoGUCkOUZXRZo4UuMYJKnAi2uNYPWILCaQMsEIMszuizQwpcYwSRPBVpcawStImA1gZYJQJZndFmghS8xgkmeCrS41gRaxcBqAi0TgCzP6LJAC19iBJM8FWhxrQG0RgGrCbRMALI8o8sCLXyJEUzyVKDFteLQmhQDaLZRoCUCkOUZXRZo4UuMYJKnAi2uFYbW9hlWoCUkthGigRaX3M/GJT2DSZ4KtLhWFFpnPxIGWkJiGyEaaHHJ/Wxc0jOY5KlAi2sFodW5hhVoCYlthGigxSX3s3FJz2CSpwItrhWDFlx0D7SExDZCNNDikvvZuKRnMMlTgRbXCkELgNUEWlpiGyEaaHHJ/Wxc0jOY5KlAi2tFoEWB1QRaWmIbIRpoccn9bFzSM5jkqUCLawWgJYHVBFpaYhshGmhxyf1sXNIzmOSpQItryaFlgdUEWlpiGyEaaHHJ/Wxc0jOY5KlAi2uJobXYh59rPIEWz+iyQAtfYgSTPBVocS0ptCYsyBRoCYlthGigxSX3s3FJz2CSpwItriWE1oQFlQItIbGNEA20uOR+Ni7pGUzyVKDFtWTQmrCgU6AlJLYRooEWl9zPxiU9g0meCrS4lghaExYcHEugxSW2EaKBFpfcz8YlPYNJngq0uJYEWhMWLBpLoMUlthGigRaX3M/GJT2DSZ4KtLiWAFoTFnTmTqNAi0tsI0QDLS65n41LegaTPBVocR0wtCYsOGY0gZaQ2EaIBlpccj8bl/QMJnkq0OI6QGjBfViBFkvphqaFPAIgGmhxyf1sXNIzmOSpQIvrgKAFwIJmxtzxBFpcYhshGmhxyf1sXNIzmOSpQIvrAKBFgQXNhBk8gRaX2EaIBlpccj8bl/QMJnkq0OLaZ2hJYEEzYmYKtITENkI00OKS+9m4pGcwyVOBFtc+QssCC5qZvh1PoMUlthGigRaX3M/GJT2DSZ4KtLj2CVplDz+bDVcKtITENkI00OKS+9m4pGcwyVOBFtc+QKv84Wez4UqBlpDYRogGWlxyPxuX9AwmeSrQ4tpjaI17+NlsuFKgJSS2EaKBFpfcz8YlPYNJngq0uPYQWuMffjYbrhRoCYlthGigxSX3s3FJz2CSpwItrj2CVvcaFq8BBVospRuaFvIIgGigxSX3s3FJz2CSpwItrj2A1gRCEOAKtFhKNzQt5BEA0UCLS+5n45KewSRPBVpcC4bWhDaCAFegxVK6oWkhjwCIBlpccj8bl/QMJnkq0OJaILQmJC8CXIEWS+mGpoU8AiAaaHHJ/Wxc0jOY5KlAi2tB0Jp0DjxjcAq0WEo3NC3kEQDRQItL7mfjkp7BJE8FWlwLgNakH4VGEOAKtFhKNzQt5BEA0UCLS+5n45KewSRPBVpcc0JrwqLQCAJcgRZL6YamhTwCIBpoccn9bFzSM5jkqUCLaw5oTdSRDI0gwBVosZRuaFrIIwCiYg4rywItfIkRTPJUoMVVCS1yp7tpBAGuQIuldEPTQh4BEBVzWFkWaOFLjGCSpwItrgpoiTvdTSMIcAVaLKUbmhbyCIComMPKskALX2IEkzwVaHGNhJa50900ggBXoMVSuqFpIY8AiIo5rCwLtPAlRjDJU4EW1who4dfLiCMZGkGAK9BiKd3QtJBHAETFHFaWBVr4EiOY5KlAi6twDhFY4DCNIMAVaLGUbmhayCMAomIOK8sCLXyJEUzyVKDFVTCHHFjgMI0gwBVosZRuaFrIIwCiYg4rywItfIkRTPJUoMU1MIf48LNcp2kEAa5Ai6V0Q9NCHgEQFXNYWRZo4UuMYJKnAi0uM4f84We5Tt0IA1yBFkvphqaFPAIgKuawsizQwpcYwSRPBVpcYg71w89ynbwRD3AFWiylG5oW8giAqJjDyrJAC19iBJM8FWhxkTn0Dz/LdRoPBLgCLZbSDU0LeQRAVMxhZVmghS8xgkmeCrS4enM4/PCzXKfxQIAr0GIp3dC0kEcARMUcVpYFWvgSI5jkqUCLa6aw7OFnuU7jgQBXoMVSuqFpIY8AiIo5rCwLtPAlRjDJU4EW15nC3m0NgVZ/DIGWWtCVYghEgRZNBVpc0yn7XcJAqz+GQEst6EoxBKJAi6YCLSrybQ3dAKR4mfdAgCvQYind0LSQRwBExRxWlgVa+BIjmOSpQAskvq2hG4AUL/MeCHAFWiylG5oW8giAqJjDyrJAC19iBJM8FWh1NPEHYaDVH0OgpRZ0pRgCUaBFU4HWWeGd7lAcaPXHEGipBV0phkAUaNFUoLUtfqc7FAda/TEEWmpBV4ohEAVaNBVodW9r8AdhoNUfQ6ClFnSlGAJRoEVTGw4t+HoZfxAGWv0xBFpqQVeKIRAFWjS1wdACYEE5dA20+mMItNSCrhRDIAq0aGpDoUWBBeXQNdDqjyHQUgu6UgyBKNCiqQ2E1sStxR+EgVZ/DIGWWtCVYghEgRZNbRi0JkNr8QdhoNUfQ6ClFnSlGAJRoEVTGwStmTvdAy2mQEsFIMszuizQwpcYwSRPbQi0er9LGGgxBVoqAFme0WWBFr7ECCZ5agOghRfdzVr8QRho9ccQaKkFXSmGQBRo0dSaQwuBNbAWfxAGWv0xBFpqQVeKIRAFWjS1xtDSP/Nl1uIPwkCrP4ZASy3oSjEEokCLptYUWvjwc+Fa/EEYaPXHEGipBV0phkAUaNHUGkKLP/xcuBZ/EAZa/TEEWmpBV4ohEAVaNLVm0NIPPxeuxR+EgVZ/DIGWWtCVYghEgRZNrRG04DvdZS+zFn8QBlr9MQRaakFXiiEQBVo0tSbQot/pLnuZtfiDMNDqjyHQUgu6UgyBKNCiqTWA1qFOcKtRi921bNFM1wMNdgOQ4mXeAwGucy492jzwJ57d3P+qxzbnXv4oWhNFq6x7P/+F5puf+u/NXb/zu823brsNtqT7ltLv37k9toy/YYs9Z15u3fSo75l2GvXMspdeS9cDZVvkFZFoAh4InNbkyJHmIT/78ubIM34EclG0rrr7P/1Bc+pX3tJMT52CLey+pcQbZxEeW8aTpZ4zwOo1WnFonXfF5c2xf/+2ZnL4MLSMonXX9I47mq//o3/S3Pu5z8OWrjq06E/Vm8scvYTMDFyj2LtrWoFVtOnaesADmot+9c3NocseCXti1a9pyZ+qX0VotR8DA6so2oXWFnkvrDK0yLOEqwut9ppVYBVFp9VC6/BLX0L3xqpCiwCrWUloHbr0WC6wR1FP5z31bzbnXHIJxBt4S9l333weW8aTyiOA1awctNpbF6IoQp3/rL8DMXwX+ffv3B5bxpPMc4jfHTHbaAte9jK4FnG5X9xiBQFI8bLOwvmPeyyU9nXHhz/afP23fru5+6bPNvedPHk2u2X+Qqq0JbbRqdjTGc54Dy6WbZ/0lLeQcw9R8RfgyrLuX5Ft3ZyeLbuXtGZ81iP3c2/p8OHti+r3/7s/1pz3138Q2szqft/7aPumWqX7tLY+c+a2BiydldyL2qdHNnAQ1t3y8Mg/vhFKZtXC6raX/gzEdzvobVQKtITENkLUHwg8o8s2Dlo7uvD1rxuE1u1PuNq1wNSS3vIw/G0N/eySfzxUas+snPIYD0vphqaFnHuIFs5h+VTPHDu2bk7Pkj3G843/8B8hJsVbYPcl/Xg40TsHLPSl9ZmR+YOwBlpe7cfAIQVaLKUbmhZy7iHqDwSe0WUbCa32sZyCFdOXpgq2UWk/oQUPP/NSktXHMa5FyB+Ei4XWfSdOQowp0GIp3dC0kHMPUX8g8Iwu29gzrYIV05emCrZRab+gNWF5Xkqy+jguHpk/CBd8plX8ftfbqBRoCYlthKg/EHhGlwVaUrKh7r5E0JqoPJaWFUqfGZk/CAsntlSBFi6ZdtJT3kLOPUT9gcAzuizQkpINdfclgRbehxVozZTpbVQKtITENkLUHwg8o8sCLVklG6oq2EalvYQWAqsZcRCaQukzI/MH4XzQAg8EuAItltINTQs59xD1BwLP6LJAS1bJhqoKtlFpr6DFgdWMOAhNofSZkfmDMNDqjyHQUgu6UgyBaJWgVbgaF8EkTx0gtCalozRVtlD6zMj8QRho9ccQaKkFXSmGQLQm0LIem+SpA4LWhLSVazRVtlD6zMj8QVgDLeOBAFegxVK6oWkh5x6i/kDgGV0WaOFLjGCSpw4AWodmSuRt8bMpU2ULpc88YNTxQIPdgNg2oq5HtLNqwbAltlGpBZB7JOfQsaPNuVdc3px3+aOa86967Pb3ep17+WVQN6t7bv7c9vOQd33ixube47ee/X/RYzx2bvQc6ha6oWkh5x48/kAYW9Y9DvgQiCo8vUI7JOGzHpsUsnNjk6wKtlGpykPKDnWDqwutci0HtM694lHNkWc8rTn/yscOwolpx3P+lY85m7331lubOz/8seaO93+ouefmgTv77dzoOdQtdEPTQs49ePyBMLYs0JJzY5OsCrZRaRHQOoTBNYWWaAJuCHDVQuvIM5/WXPScZ1dBakiHjh5tLrzmx7f/u/fW25qT1727OfX+D3W+maI7IDc3eg51C93QtJBzDx4xh9any9YLWmNl58YmWRVso9K80DrEgqsJrQKJJrQdH0ZvTOXQuvinXtBc9BPP3rdvRD109JLm4n/6081FL/qHzcnr3tOceNd7OLjs3Og51C10Q9NCzj14xBxany5bH2jVyM6NTbIq2EaleaA16Qe7QxGaFlXZQulTV9v6Hl3mJZpAOwhwDV2Ib38P8S/9wQeai1/0ggP5+uZ2nRe98PnN0d+5rrng6h+C/Lbs3Pjt4ynd0LSQcw9RMYeVZd3jwNbN6dnrC/E1snNjkzy1xxfi4T6sQIumrBi02gvnD/1Xr2qO/tu3bl9UP2i1Z1wP/eU3NA998xu3xwayc4PbxyQ95S3k3ENUzGFl2QZAy7js3NgkT+0htABY6DWNAq2Zst3C9hemj/27ty7ld8xf8KQnNt/29t/gv4Jt50bPoaiCpUCLFwZa5R4KLPSaRoHWTNl0+69/7U+NUSAsic591GWBllSgxatskqf2AFqHINLzrsyF+FpN+dVZ6A0B1CJ+xPWuT3yyuevjNzbfPH58+74qpvYjZruu2lsimjPXtlpoffl5L8JbIOzc6DnULXRD00LOPXjEHFqfLuseB3wIRBWefbwQb+dDFGKVTbIq2EalUo8FFnpXF1q2ThzJ4IHAruaB1cn3fbC588Mfbe78yMcgp3TqfR/czpxz4YXNBU/+oebw03+kc09WiQItWbZy0Bo3OlxShVhlk6wKtlGpxDMILPQuJ7RKJHvDisdBq72Ifcmv/OtRsLrv1Knt75k/+d4PNvceP3427u6IZ/rWiRPb8Gr/a8+8HviiFzSHn/63SCXXDrRueeoz8bYHOzd6DnUL3dC0kHMPHjGH1qfLVgpapbLzwTeDVNkkq1oYtPzDz7ONuh80Ic9SpsoWSt/A59sS2Q5iG8HTCzzsda8a9ZfAOz7yseZLf/vZzVd//W0dWG23nuPZw/Yj5O2/8Ormtu0zps9BnVILrQe/9pU8a+dGz6GogqXi40XsF4iKOaws6x4Htm5OzwKuaVnJ/Wz80jOY5KkFXNMafvhZeo1nKaFlAMTLvOdM4AFPeVLzgCc/CdowtWdV/+9fvLr58kt/BkDVaT3nA9Ptc4XHn3XN9s2ipWr/epj7tJQCLV5lkzw1J7QmokQq0OqmHvLPXg52phZWx//+C5qT7/0AyaIW8S0PX3nDm5rbX/kaqFO6+BUvExnceHnAm2FLT3kLOfcQFXNYWbb80CqV3M9mTdIzmOSpOaA1KQYQeoc9aw6t9rnAko+CO7C6Z+enxuyKZ9a6AGi117ZKodXeXNpevJeyc6PnUFTBUqDFCwOtXc8EvYEWT6LnQS/+SbAwtbC6+6ab6R3xgyPdZ2i1zx5a2bkJtLgCLZqqgNbuLz+vO7SgDAFEJbax/f6qkrOr9sJ6C6vdDnoblRYFrZLbJtqzLHpDaae5Wwy0uAItmhoJrbqHn2s8awat9mL7kNq/2n3l198KVQcFrdt/4TXbH0+HJC++d5q7xUCLK9CiqRHQgkdzVhZapYIGddBqv4VhSAxWux30NirNC632PqsT170bavo676rCG1Dt3ARaXAcDLeuR+9m4pGcwyVP78vBzjeeAoOWHNx5a7Z3tTu2ZzNBfBA8CWieuG77Vof1ImO+IVwu6UgyBKNCiqX15+LnGswbQmhzxd7Xfcf1HIca039Bqz7KGrmXt3LEfaKkFXSmGQBRo0dTAzpDAQq9vNNqzJmdaSt+44RPlADLbqDQPtNoHrIs9gZZY0JViCET7CK3p+GN7GaFlgYVe3ajKs8rQGtC9txwf1WQ/oXX2fjCnznACLb6gK8UQiAItmhI7YxBY6OWNqj1rDK2xTfYNWhUACrTUgq4UQyCaH1rFWnFoTViQadmhVSM/vPmgdefHb1TtrPYDWkVnWGQMgZZa0JViCESBFk3Rh58DLbLQzUJqbG8a4NpraMHXyAwPaOZloMUXdKUYAlGgRVP04ed1h5bZPj+89YTWaAVaPKPLAi18iRFM8tTOw88NCQ4p0CpaGXkFKatAi6V0Q9NCzj1E/YHAM7ps/6BVqxWD1gRqVxVapTLb54cXaPXHEGipBV0phkAUaLHUhNYGWmQBsqUrI68gZRVosZRuaFrIuYeoPxB4RpcFWvgSI5iE1ETWBlpkAbJaogm4IcAVaLGUbmhayLmHqJjDyrJAC19iBJOd1KQf6FZAhGo5oFUhs31+eBDgEk3ADQGuQIuldEPTQs49RMUcVpYdGLTKV2WOU9HQzodIYZVNnhX8as4UfokEf7mCaVr6yzqytfFMC39dxUj6zPZNi39dxUg0gXYQ4GrBsDVyZ7TQGvtrPMWeztzMjM2pN+528RGf+m/GcPC65aofwA3WuwLKjt3wX6B+Vrc+/gkQU93NIWulR95fVeHvHsr3pXFJz2ByW/ROdwDcmpxpSZ/ZvopNQokm0A4CXAf1fVpSCzjTWnqJObSbpcsqlTMtCixaG2iRhdoVm4MBAlyB1gFIzKHdLF3W9eTjYVFSAovUBlp0oXbF5mCAAFegdQASc2g3S5d1PXsJrTV5YNoCizZaVWhN7aIaRJlnjMQ2Qm8IcAVaByAxh4vYrEDLJ8u+rQECEKHaZGjZOrGN4IEAVw20arSn0FpywVaIObRlVjUf9Sr27YpDq/zbGiAAEar9glaxAq25FGipAGQLMroy0OLJcd/WAAGIUC0HtPQekS0WcA+T7SC2ETwQ4Aq09l6wFWIO6xVo8arTkd37sErvt4L7h5bkPq0iTeV9HrJ77U0vMx1lb0gaDwS4au7TqtGi79P600c/vhvYcotb9GVf0lPegs497FYxh7O65aofxHVhGfSoPvxK1GvOR050gPdpdR9+XuUzrWJpjMvu1Wda4/81sh4IcK3FmZadm7Ltk57yFnLuISrmsLKs8kyrQit2poUPPwdaXIEWVaClApDlGV0WaOFL8fBzoMUVaFEFWioAWZ7RZYFW7+Whfn73o/gKX9Mq1rTzgfnwD1/dPOznX9Hc79jROfs2zWWf/hTEVknf8T8/Pjja9qf4/+INb2ru/PBH9/3ZQ3o9xBwS0lPeQh7b4JkOX9OCjC7rJMUQFqMVuKYF92Ft6pnW4b9xdXPpW355IbDaFB06drT5tje/sbngyU86vSdzpiUCkOUZXTb3mda63FwKwALrmkDLV02bh/3zV0A0KtODX/Gymbnxe5pNSKClFnSlGILVOkCLAgusGwCtnFnV61Bv3wVaKgBZntFlGw+tyUCeDsQJqvYNWmVaxIfIqGRuAi0egCzP6LJKaFV4lhBak4H8+kBL7pxorxRoqQBkeUaXbSy0JgN5TAVa0QgFWioAWZ7RZZVH8WpDa1K6c5YdWsWSOyfaKwVaKgBZntFlGwetQzuhkV+tDvdsKEG7PbxPq1hTdT+I1s2XPxoKpc9sn3+WbIu8IhJNwAMBrs69UMLzV/7XJyA2RkP3af3l/3EDxPZSf/aY7+t0n7r7gsjx8u03/tFCR7fzrKEckz1QLQqEpuPv7VqC+7TEne7Qiqc27UxL/+PbS8jMwH4e/6+R9UCAa+nuiD8guX/ZD+rMXEz1wruvypnWRB7wpus6QqvWI1uY7fObJOZDl3kPBLgCrdNibxK1uJdrlhldNvd6VwFak3440FKSe1G3MNvnN0nMhy7zHghwbRS0zBDs29H45pduLqZ64etddmhNWHg9oWU8JiULA625FGgp6eZiqhe+3mWG1kRVbBy0anoEWrtlZhuVVhpaezoOva5Nhxb88vPpMLmiP9WX96cr9dfDGo/pMZV/UOpZ9Pb19/PkwiPbD2Ofd8Xl2//N6u6bbm7uuemzzan//JHmvpMndRM2hzTABd9cWrJXBv4SyFTjWYz0HHa2Sfy1aq+H5NZV+r7sePThJ7sv418PCbAafcCbrssOrcXfJqEPeNndbF/rOefIkebi517TPPDaa5rJkcNQ0+r+Vz12+/8P+dmXN19757uar73zt3fBJSYLxgMBruKvf+lsYh20DkZ6DvXuMoWLkJhDO6bif1Dk4Se7Lxu0BLAafcCbrgcLrWGhZ3mg1Z5JHfu18q+3aYH2oBf/ZHPhjz69ufUlL9s+88IVizmkAa79gtb/+Z6ryj2d28bGexoFILNP+tD688d8v2qoWpxJ8qyeGz0ondEShx/RckLLPvwsr4cYz8Fd0yrT4v/iqK/3yO69gbfQecTvv6fqGyPab0p4+O+9e7sHX7GYQxrgqvnFm2X/sVZ55cW0k57yFjD30iPm0JZZVVyfWsJrWoMPP8sD3njWEVq+Sh+t0ndmEO2Z1SW/+GpIj9XDXveq7vUusY0wHggsToGWkNhGiIo5tGVWqw+tooef5QFvPIGWXDyr9mNd+zFwUTr6ljc1kyNHxIrFHNLA4hRoCYlthKiYw3qtNrQOTWu+V3oJr2nVqKY1jE9lp8PXtC6+9pqFfnFg+/Hwgdc+u/nKr71VrHh34a/+8Y3g3yvt6V8PO7t8s78jvlzT8denluSaFvmZL7DT5DKeadWo/F8M+pJIF84utrcuXPzc56B9Rt/4+I3N8Ze8rPnC4564/V97cb2NOZ3+C+ORbsXC/5Uer5xpCYlthGjOtLY1+uHnQAteEunCncXDT7la3rrQ6sR7P9D8+bXPb05d/5HmWydPbt+60L7+0rXP384ptT3be7hAgRZKzA0smXbSU95CHoAQDbS6d7pvMrSKtSBoXfD4q8Cxo/Ys6rafeyV4dvTln3ulPdPauVcL5Ac8n0oZEWhxiW2E6IZDa2J3t+0aaDVsfIWFhy49BtU7+uo73gWxfouviZqh3gMDnk+BFl1aCmjZstWBFnxbAyzZrqsErQW/UxcALaU7b9A/YrrT4s4b/Bfq2VXZ5JwKtOhSoMULx0KLflsDLNmugdZw5/HQctunM3V1i9DSPTC9cdAqlPUsP7QmjjIm1e9EXnlPoKV1weOuPFOnC++/UzMg3WHxCrRYSjc0LeTcQxQCXFXvZVs3p6cSWofOVov7PEyKDJrcO2E80328T2v+5wiNZ1p4381M9u7P3NRcIC6Ot7c7tN/GQAY+U3MNxHZ0+rlCMR9n9PnveszuQie5RV6V37cF3/KAQwe1AJr3O+OXTe13xot3UfnxIuYePCOgNfq9zIdAVOGpuE9L3Olu6Gd3znKfac3/HKHxjDzTuvszN0NmR+1f+S55/WtnLN2Ol/zSa/RfAs8Cq9HzwYcEC9ZjtF9fArjsMu+ixZ9pFUpMNdFynml1v8DPbI1J9UdAXnnPQqBVqGWB1snt77M6BZkdXfjMpzUP/623b99T1d5kun1/1VOubh7+zn+znVNqe549O+uNxI5J7BfrMQq0Tsu8iwItUehs+PUy5rzRpGSTff14WKiaj4fFnsLT/ftOnGi++o7rmge/5IWQ21F7FuXOpJja78i678RJ8pmBzIcZe99To5qPh+so8y5a/MfDQompJlquj4cTiDT9I9TQzx7J4l9p41n2M61iT+G/nF95x3XNN4/fCvFatb3O3sMFKxbzocsWcmqUM63TMu+inGmJQmbjwIJq04h1Jcnlh1aNxzQoOAjbM6FbfuofQ7xWx1/809uP8egVi/nQZYHWAmXeRXNDq1arBq2J7WO2xqRkk72EVq0OGlrtxff+Yzg1uu3n/+XZi+1+eGI+dFmgtUCZd9EeQ0t7Vgla+G0NYJYLLiWbBFqor//e+5o/eeazqj4etp4//dEfb078/vvVasmKxXzosoVoo6Blts+8iwItUbizdGg2wC5yYXKqLyEWNin1TCsuxO+nFnkhvj3T+pNn/FjzoOc+Z/s+LPdNDs2Zvwa2F+2/2l5kF39tdPv5sk9/EurnktowGBO/EP/F7/Y3wtb8ss7BfEd8U3QV3byLio6X08ma94Tu6I4XVbnfF+In7CscqAyCTYoMmpQZz36eadVo0de0bv/V32g+d+UTINfX5696QvMXb/nN038RNPtlwZ/svAr75454ltINTQs796qf67jsZ1qTftD2MVtjUihEKCUAABB/SURBVLLJvkJrD2G36L8eVpHFbF+gVTSgmZeBFl/QlfsFrQkL2j5ma0xKNgm09mwQarWBltIqQ6tUKw6tCQuOGCNUmpRsEmhVrAsidBBlngUIekOAK9BiKd3QtCjXCkML78MKtITKPIGWC3AFWiylG5oWUuBZUWghsHpu28dsjUnJJnsJLagKtPZE0BsCXIEWS+mGpoUUeFYQWhxYPbftY7bGpGSTQGuBI9rXv6qKOaQBrkCLpXRD00IKPCsGLXz4udNH/z4YrE/cwGFSskmpx6SkwFP6oPUSPDCtPGRRDeKsPvud37v9UnwVFgTK7tsSc0gDXOo+Laf87uE4gafwDVf1XuaHH1GZR59hnV23+ZezP0a+4FKySdWZVqHAU3qGVr4h4z01/3Lqf3zdILQHyiAwalDghgBXzrRYSjc0LaTA4w8EntFle3amNQysnlv0IUmzu5cRWqW+fYJW+YDsohqE9kAZBLhEE3BDgCvQYinbcLTALuawsmxPoOUffu70MQchXx9UmpRsUsGHYq02tPQBL1uwI4B5oAwCXKIJuCHAFWixlG2oJbYRomIOK8sWDq1DO2nxkbHXZ7mvadWott1eX9O66fK/dnZRVHV7TOVlDjcI1c00GJBoAu0gwJVrWixFGpZIzD2sVsyh9emy7nHAh0DEPfyn6p1yprXr26czLVNlC6XP/FO3kP0smkA7CHDlTIulTKGT2EaIijmsLLNnTVroKX/4ubPu9YNWrQItIdEE2kGAK9BiKVPoJLYRomIOK8sogAoG2/GMe/i50yfQ2lGgJSSaQDsIcAVaLGUKncQ2QlTMYWUZAKhwsGdfjX/4udNnhaC1xzdRrj20aiW2EXpDgCvQYilT6CS2EaJiDivL5oJW3cPPNR6zNSYlmwRaSrpQ+sx+0ZkRdWIbwQMBrkBrMFUusY0QFXNYWVYNLbwPa1WhVao9fmA60BIS2wgeCHAFWoOp8jqxjRAVc1hZVgUtBFbPvS7Q6vYOtKgWcAZqO4htBA8EuAKtwVR5ndhGiIo5rCwbDS39LGHpPVc1nqm+gcOkZJMxE7bbe9z3YX/XF/43xCK+d2vmHjwQ4Mp9WuNkW4j3BHjEHFqfLuseB3wIZ8XPsGY3YKZlkQ7oTKt4eJ2F+c8oIr537Z4VEwweCHDlTGvsmIzENkJUzGFlWfGZlgdWz2361HnM1piUa1KkQGsvFWj1xxBoqQVdKYaw4Iefazxma0zKNSnSrON+lx4b7Y+cAq3+GAIttaAr2RAmLEi19NAar5123/zSLYttvImCuQm0+mMItNSCruwPYcKCUusMrVuOQy4q0707v1gNcxNo9cdwcNDSDW0LsY0QFXNYWSahNWFBq1WFlvG0qVtf+3qIR2X6v7/4RrOfA63+GAIttaArdx9+Hh4Xag2hdeIPr2/+7IUvzZnWCH3z+K3N8Ze8rDl1/UcG5ibQ6o9h4dAqlm5ou4lthKiYw8oygBbch1V8e9LS36clZDwttE7+4fW7gcJ7daCq1Oe/UJ2q2LNFXxLpQukT2+fnZjcAKV7mPRDg2qj7tIyspzMm003AATxiDq1Pl3WS9K+EAqaoFTrTKvV060yh8ozxVWzIan/LQ860+mPYzzMt61mRMy0KLDMuVKCFnjG+QItLNAEPBLjWH1o1LXRD21tsI0TFHFaWbScnrkKMC7UM0CpdrVxwdaZQecb4Ai0u0QQ8EOAKtJhHN7S9xTZCVMxhZdnOGZauEONCLT20xLpMg0BLLqpBaA+UifnQZd4DAa5Ai3l0Q9tbbCNExRzWlE0GK/S4UIEWesb4Ai0u0QQ8EOBaR2jVyL6LlhRavWtYpMKPC3VA0CqXWJdpF2jJRTUI7YEyMR+6zHsgwBVosRZ6su2qxDZCVMzhmDJy0d000ilZGGhV+AItLtEEPBDg2ihombpVghYBFpSXjAsVaKFnjC/Q4hJNwAMBrnWA1uTwEYhRmXarAi3z8LNMqHGhlghaD/i+x0FMHvCmXaAlF9UgtAfKxHzoMu+BANeqQ+vcyy+DmJRptwrQGnj4WSaMRxfuLbS8HvIPrhV5sS7TO9CSi2oQ2gNlYj50mfdAgGuVoXXkOX8PYqiy7Vt2aBU8/CwTxqML9wpad33mJkjN6sIffnLziLe9ZftM65wL+6fQYl1mxYGWXFSD0B4oE/Ohy7wHAlyrBq3zr3xM89A3v7G54ElPhNys7vns51hDqWWGVudZQvGo0JlymjAeXai7VXqmTXPqj25ozv/OKyA1qxZa7X9RtEm6+xOf7L5ZCh4cnC7ps4dw0V2A0dNPp2Thos+0bn/7OyEWRVHTnHjXu/VZk3lTSU95CwkHiBaeaQGwzDpsI+3RhYuE1j1fuqX56u++F+JRtMk69YEPnf2CRQkg9aaC1MFDa+vGY5fxjP4WEXnK5j26sPiLPAY87bWpK/7r9c05Rwr/zBtFa6z7Tp1qbnnqM5v7Tp3svo3UEntT0ZT+HiLTQsIBouYrlCoffpYJ49GFizrT+taJk80Xn3Vt862TJyEXRZukFlZfft6Lmvva94I+MVq5M605Hn6WCePRhYuC1jc+fVOgFW20dmB1z82f3d0NmjErBa05H36WCePRhYuE1k0/8JRc04o2Tu01q/ZjYAdWO9KMWRlobd149JFT95mxk5EpmTAeXbioa1qtzv32S5uHPO/a5vD3P27wtocoWkW191nd9fEbm5Pves/uLxg56UtQS39N6zSwoAosQ+tYamhh0uzuwiYVX62e74iHWjoI7YEyMR+6zHsgwLVltlFp7HfEN2M8neGM9+Di8kJr9yMhOf1iEmdzS3+flts+k5JNSj3dOlOoPGN85Rsy3lN6um8Kpc9snx+emA9d5j0Q4MpPiLGUbmhayLmH6JnAhAXJQsk62GoKPLow0KrwBVpcogl4IMAVaLGUbmhayLmHaPvwMwuKhZJ1sNUUeHRhoFXhC7S4RBPwQIAr0GIp3dC0kHPfj05YUE0slMmUTBiPLgy0KnyBFpdoAh4IcAVaLKUbmhZy7mejExbEAGSH1hFoCQVaclENQnugTMyHLvMeCHAFWiylG5oWcu53ohMW5AHIDq0j0BIKtOSiGoT2QJmYD13mPRDgCrRYSjc0LeTcT+GiO2skJhbKZEomjEcXBloVvkCLSzQBDwS4Ai2W0g1NCzn3ACzaSEwslMmUTBiPLgy0KnyBFpdoAh4IcAVaLKUbmhZ07uXDzxAVEwtlMiUTxqMLA60KX6DFJZqABwJcgRZL6YamBcy9ffgZomJioUymZMJ4dGGgVeELtLhEE/BAgCvQYind0LTozP3gw88QFRMLZTIlE8ajCwOtCl+gxSWagAcCXIEWS+mGpsXZuS/65WeIiomFMpmSCePRhYFWhS/Q4hJNwAMBrkCLpXRD02J77snvEkKAR8XEQplMyYTx6MJAq8IXaHGJJuCBAFegxVK6oWmhfpcQAjwqJhbKZEomjEcXBloVvkCLSzQBDwS4Ai2W0g1VC/O7hBDgUTGxUCZTMmE8ujDQqvAFWlyiCXggwBVosZRuyFp073SHCgjwqJhYKJMpmTAeXRhoVfgCLS7RBDwQ4Aq0WEo37LeAG0dxOyHAo2JioUymZMJ4dGGgVeELtLhEE/BAgCvQYindcDYDwGro/EOAR8XEQplMyYTx6MJAq8IXaHGJJuCBAFegxVK64c5LCqyGzj8EeFRMLJTJlEwYjy4MtCp8gRaXaAIeCHAFWiylG04dsBo6/xDgUTGxUCZTMmE8ujDQqvAFWlyiCXggwBVosZRuaIHV0PmHAI+KiYUymZIJ49GFgVaFL9DiEk3AAwGuQIuleMNBYDV0/iHAo2JioUymZMJ4dGGgVeELtLhEE/BAgCvQYilsOHET26mFMgjwqJhYKJMpmTAeXRhoVfgCLS7RBDwQ4Aq0WKq7dPoMK9DiCrREWaDFk8YDAa5Ai6V2l2Z+l9C4Z61QBgEeFRMLZTIlE8ajCwOtCl+gxSWagAcCXIEWS51e6v7MV6DFFWiJskCLJ40HAlyBFktNyc98BVpcgZYoC7R40nggwBVoYYr/zFegxRVoibJAiyeNBwJcgVY3pX/mK9DiCrREWaDFk8YDAa5AazcF92EFWgv0mO0zKdkk0FLShdJnts8PT8yHLvMeCHAFWqcFwIL6QIsr0BJlgRZPGg8EuAItASyoD7S4Ai1RFmjxpPFAgGvToSWBBfWBFlegJcoCLZ40HghwbTK0LLCgPtDiCrREWaDFk8YDAa5NhVbZw8+dhUCLKtASZYEWTxoPBLg2EVqTqr6BFlegJcoCLZ40HghwbRq0JqRCKtBaoMdsn0nJJoGWki6UPrN9fnhiPnSZ90CAa5OgNSExq0BrgR6zfSYlmwRaSrpQ+sz2+eGJ+dBl3gMBrk2B1qRqQzsLgRZVoCXKAi2eNB4IcG0CtCbQLNDiCrTQM8YXaHGJJuCBANe6Q2vm4edAa1CBFnrG+AItLtEEPBDgWmdo9R5+DrQGFWihZ4wv0OISTcADAa51hRbchxVoFSjQQs8YX6DFJZqABwJc6wgtABY0C7S4Ai30jPEFWlyiCXggwLVu0KLAgmaBFleghZ4xvkCLSzQBDwS41gla9k73QKtAgRZ6xvgCLS7RBDwQ4FoXaA3e6R5oFSjQQs8YX6DFJZqABwJc6wCtojvdA60CBVroGeMLtLhEE/BAgGvVodW9hmXqA60CBVroGeMLtLhEE/BAgGuVoYUX3U19oFWgQAs9Y3yBFpdoAh4IcK0qtBBYjd+AQKtAgRZ6xvgCLS7RBDwQ4FpFaHFgNX4DAq0CBVroGeMLtLhEE/BAgGvVoDVhQWbGVKA1qEALPWN8gRaXaAIeCHCtErTw2xqMGVOB1qACLfSM8QVaXKIJeCDAtSrQ4t/WYMyYCrQGFWihZ4wv0OISTcADAa5VgNaEBalsKtAaVKCFnjG+QGtUE/BAgGvZoQV3ugdaEJrDowsDrQpfoMUlmoAHAlzLDC16p3ugBaE5PLow0KrwBVpcogl4IMC1rNCSd7oHWhCaw6MLA60KX6DFJZqABwJcywgtvA8r0DL95/HowkCrwhdocYkm4IEA17JBC4HVBFq+/zweXRhoVfgCLS7RBDwQ4FomaHFgNYGW7z+PRxcGWhW+QItLNAEPBLiWBVoaWE2g5fvP49GFgVaFL9DiEk3AAwGuZYCWB1YTaPn+83h0YaBV4Qu0uEQT8ECA66ChNQysJtDy/efx6MJAq8IXaHGJJuCBANdBQss//Nxxz740HpsKtAYVaKFnjC/Q4hJNwAMBroOC1vDDzx337EvjsalAa1CBFnrG+AItLtEEPBDgOgholT383HHPvjQemwq0BhVooWeML9DiEk3AAwGu/YZW+cPPHXehx6YCrUEFWugZ4wu0uEQT8ECAaz+hNe7h54670GNTgdagAi30jPEFWlyiCXggwLVf0Br/8HNnjYUemwq0BhVooWeML9DiEk3AAwGu/YBW3cPPNR6bCrQGFWihZ4wv0OISTcADAa69hhbehxVo8aiYWCiTKZkwHl0YaFX4Ai0u0QQ8EODaS2ghsJr+Pg20eACypv88Hl0YaFX4Ai0u0QQ8EODaK2hxYDX9fRpo8QBkTf95PLow0KrwBVqjmiwNtJqm+f+TTGoFJcVt7gAAAABJRU5ErkJggg==;fontFamily=Verdana;" vertex="1" parent="1">
          <mxGeometry x="7" y="522" width="50" height="50" as="geometry" />
        </mxCell>
        <mxCell id="0yja2uZejNiCgg6DEzDY-7" value="AWS &lt;br&gt;IAM" style="text;html=1;strokeColor=none;fillColor=none;align=center;verticalAlign=middle;whiteSpace=wrap;rounded=0;fontFamily=Verdana;" vertex="1" parent="1">
          <mxGeometry y="577" width="60" height="30" as="geometry" />
        </mxCell>
        <mxCell id="0yja2uZejNiCgg6DEzDY-8" value="" style="sketch=0;outlineConnect=0;fontColor=#232F3E;gradientColor=none;fillColor=#DD344C;strokeColor=none;dashed=0;verticalLabelPosition=bottom;verticalAlign=top;align=center;html=1;fontSize=12;fontStyle=0;aspect=fixed;pointerEvents=1;shape=mxgraph.aws4.role;fontFamily=Verdana;" vertex="1" parent="1">
          <mxGeometry x="4" y="628" width="53.18" height="30" as="geometry" />
        </mxCell>
        <mxCell id="0yja2uZejNiCgg6DEzDY-9" value="Role" style="text;html=1;strokeColor=none;fillColor=none;align=center;verticalAlign=middle;whiteSpace=wrap;rounded=0;fontFamily=Verdana;" vertex="1" parent="1">
          <mxGeometry x="1" y="660" width="60" height="30" as="geometry" />
        </mxCell>
        <mxCell id="0yja2uZejNiCgg6DEzDY-10" value="" style="sketch=0;points=[[0,0,0],[0.25,0,0],[0.5,0,0],[0.75,0,0],[1,0,0],[0,1,0],[0.25,1,0],[0.5,1,0],[0.75,1,0],[1,1,0],[0,0.25,0],[0,0.5,0],[0,0.75,0],[1,0.25,0],[1,0.5,0],[1,0.75,0]];outlineConnect=0;fontColor=#232F3E;fillColor=#E7157B;strokeColor=#ffffff;dashed=0;verticalLabelPosition=bottom;verticalAlign=top;align=center;html=1;fontSize=12;fontStyle=0;aspect=fixed;shape=mxgraph.aws4.resourceIcon;resIcon=mxgraph.aws4.sns;fontFamily=Verdana;" vertex="1" parent="1">
          <mxGeometry x="8" y="697" width="50" height="50" as="geometry" />
        </mxCell>
        <mxCell id="0yja2uZejNiCgg6DEzDY-11" value="AWS&lt;br&gt;SNS" style="text;html=1;strokeColor=none;fillColor=none;align=center;verticalAlign=middle;whiteSpace=wrap;rounded=0;fontFamily=Verdana;" vertex="1" parent="1">
          <mxGeometry x="3" y="749" width="60" height="30" as="geometry" />
        </mxCell>
        <mxCell id="0yja2uZejNiCgg6DEzDY-12" value="" style="sketch=0;outlineConnect=0;fontColor=#232F3E;gradientColor=none;fillColor=#E7157B;strokeColor=none;dashed=0;verticalLabelPosition=bottom;verticalAlign=top;align=center;html=1;fontSize=12;fontStyle=0;aspect=fixed;pointerEvents=1;shape=mxgraph.aws4.email_notification;fontFamily=Verdana;" vertex="1" parent="1">
          <mxGeometry x="7" y="782" width="50" height="50" as="geometry" />
        </mxCell>
        <mxCell id="0yja2uZejNiCgg6DEzDY-13" value="email&lt;br&gt;notification" style="text;html=1;strokeColor=none;fillColor=none;align=center;verticalAlign=middle;whiteSpace=wrap;rounded=0;fontFamily=Verdana;" vertex="1" parent="1">
          <mxGeometry x="6" y="833" width="60" height="30" as="geometry" />
        </mxCell>
        <mxCell id="0yja2uZejNiCgg6DEzDY-20" value="Public subnet" style="points=[[0,0],[0.25,0],[0.5,0],[0.75,0],[1,0],[1,0.25],[1,0.5],[1,0.75],[1,1],[0.75,1],[0.5,1],[0.25,1],[0,1],[0,0.75],[0,0.5],[0,0.25]];outlineConnect=0;gradientColor=none;html=1;whiteSpace=wrap;fontSize=12;fontStyle=0;container=1;pointerEvents=0;collapsible=0;recursiveResize=0;shape=mxgraph.aws4.group;grIcon=mxgraph.aws4.group_security_group;grStroke=0;strokeColor=#248814;fillColor=#E9F3E6;verticalAlign=top;align=left;spacingLeft=30;fontColor=#248814;dashed=0;" vertex="1" parent="1">
          <mxGeometry x="516" y="361" width="230" height="130" as="geometry" />
        </mxCell>
        <mxCell id="0yja2uZejNiCgg6DEzDY-16" value="sa-east-2" style="sketch=0;outlineConnect=0;gradientColor=none;html=1;whiteSpace=wrap;fontSize=12;fontStyle=0;shape=mxgraph.aws4.group;grIcon=mxgraph.aws4.group_availability_zone;strokeColor=#545B64;fillColor=none;verticalAlign=top;align=left;spacingLeft=30;fontColor=#545B64;dashed=1;fontFamily=Verdana;" vertex="1" parent="1">
          <mxGeometry x="502" y="323" width="257" height="517" as="geometry" />
        </mxCell>
        <mxCell id="0yja2uZejNiCgg6DEzDY-27" value="" style="sketch=0;outlineConnect=0;fontColor=#232F3E;gradientColor=none;fillColor=#ED7100;strokeColor=none;dashed=0;verticalLabelPosition=bottom;verticalAlign=top;align=center;html=1;fontSize=12;fontStyle=0;aspect=fixed;pointerEvents=1;shape=mxgraph.aws4.instance2;" vertex="1" parent="1">
          <mxGeometry x="601.5" y="397" width="58" height="58" as="geometry" />
        </mxCell>
        <mxCell id="0yja2uZejNiCgg6DEzDY-28" value="Bastion" style="text;html=1;strokeColor=none;fillColor=none;align=center;verticalAlign=middle;whiteSpace=wrap;rounded=0;fontFamily=Verdana;" vertex="1" parent="1">
          <mxGeometry x="603.5" y="454" width="60" height="30" as="geometry" />
        </mxCell>
        <mxCell id="0yja2uZejNiCgg6DEzDY-29" value="" style="sketch=0;outlineConnect=0;fontColor=#232F3E;gradientColor=none;fillColor=#8C4FFF;strokeColor=none;dashed=0;verticalLabelPosition=bottom;verticalAlign=top;align=center;html=1;fontSize=12;fontStyle=0;aspect=fixed;pointerEvents=1;shape=mxgraph.aws4.internet_gateway;" vertex="1" parent="1">
          <mxGeometry x="427" y="172" width="50" height="50" as="geometry" />
        </mxCell>
        <mxCell id="0yja2uZejNiCgg6DEzDY-38" style="edgeStyle=orthogonalEdgeStyle;rounded=0;orthogonalLoop=1;jettySize=auto;html=1;" edge="1" parent="1" source="0yja2uZejNiCgg6DEzDY-30" target="0yja2uZejNiCgg6DEzDY-34">
          <mxGeometry relative="1" as="geometry" />
        </mxCell>
        <mxCell id="0yja2uZejNiCgg6DEzDY-42" value="&lt;font style=&quot;font-size: 18px;&quot;&gt;/*&lt;/font&gt;" style="edgeLabel;html=1;align=center;verticalAlign=middle;resizable=0;points=[];" vertex="1" connectable="0" parent="0yja2uZejNiCgg6DEzDY-38">
          <mxGeometry x="-0.1667" y="-1" relative="1" as="geometry">
            <mxPoint as="offset" />
          </mxGeometry>
        </mxCell>
        <mxCell id="0yja2uZejNiCgg6DEzDY-30" value="" style="sketch=0;points=[[0,0,0],[0.25,0,0],[0.5,0,0],[0.75,0,0],[1,0,0],[0,1,0],[0.25,1,0],[0.5,1,0],[0.75,1,0],[1,1,0],[0,0.25,0],[0,0.5,0],[0,0.75,0],[1,0.25,0],[1,0.5,0],[1,0.75,0]];outlineConnect=0;fontColor=#232F3E;fillColor=#8C4FFF;strokeColor=#ffffff;dashed=0;verticalLabelPosition=bottom;verticalAlign=top;align=center;html=1;fontSize=12;fontStyle=0;aspect=fixed;shape=mxgraph.aws4.resourceIcon;resIcon=mxgraph.aws4.route_53;" vertex="1" parent="1">
          <mxGeometry x="422" y="251" width="60" height="60" as="geometry" />
        </mxCell>
        <mxCell id="0yja2uZejNiCgg6DEzDY-32" style="edgeStyle=orthogonalEdgeStyle;rounded=0;orthogonalLoop=1;jettySize=auto;html=1;strokeWidth=3;endArrow=block;endFill=0;" edge="1" parent="1" source="0yja2uZejNiCgg6DEzDY-31" target="0yja2uZejNiCgg6DEzDY-29">
          <mxGeometry relative="1" as="geometry" />
        </mxCell>
        <mxCell id="0yja2uZejNiCgg6DEzDY-31" value="" style="verticalLabelPosition=bottom;sketch=0;html=1;fillColor=#A153A0;strokeColor=#ffffff;verticalAlign=top;align=center;points=[[0,0.5,0],[0.125,0.25,0],[0.25,0,0],[0.5,0,0],[0.75,0,0],[0.875,0.25,0],[1,0.5,0],[0.875,0.75,0],[0.75,1,0],[0.5,1,0],[0.125,0.75,0]];pointerEvents=1;shape=mxgraph.cisco_safe.compositeIcon;bgIcon=ellipse;resIcon=mxgraph.cisco_safe.design.users;" vertex="1" parent="1">
          <mxGeometry x="260" y="100" width="50" height="50" as="geometry" />
        </mxCell>
        <mxCell id="0yja2uZejNiCgg6DEzDY-33" value="https://asg-lt1.owncompany.com" style="text;html=1;strokeColor=none;fillColor=none;align=center;verticalAlign=middle;whiteSpace=wrap;rounded=0;fontFamily=Verdana;" vertex="1" parent="1">
          <mxGeometry x="294" y="102" width="238" height="30" as="geometry" />
        </mxCell>
        <mxCell id="0yja2uZejNiCgg6DEzDY-34" value="" style="outlineConnect=0;dashed=0;verticalLabelPosition=bottom;verticalAlign=top;align=center;html=1;shape=mxgraph.aws3.application_load_balancer;fillColor=#F58536;gradientColor=none;" vertex="1" parent="1">
          <mxGeometry x="417.5" y="371" width="69" height="72" as="geometry" />
        </mxCell>
        <mxCell id="0yja2uZejNiCgg6DEzDY-35" value="ALB" style="text;html=1;strokeColor=none;fillColor=none;align=center;verticalAlign=middle;whiteSpace=wrap;rounded=0;fontFamily=Verdana;" vertex="1" parent="1">
          <mxGeometry x="420" y="438" width="60" height="30" as="geometry" />
        </mxCell>
        <mxCell id="0yja2uZejNiCgg6DEzDY-1" value="" style="outlineConnect=0;dashed=0;verticalLabelPosition=bottom;verticalAlign=top;align=center;html=1;shape=mxgraph.aws3.cloud_2;fillColor=#F58534;gradientColor=none;fontFamily=Verdana;" vertex="1" parent="1">
          <mxGeometry x="779" y="210" width="43" height="40" as="geometry" />
        </mxCell>
        <mxCell id="0yja2uZejNiCgg6DEzDY-36" value="IGW" style="text;html=1;strokeColor=none;fillColor=none;align=center;verticalAlign=middle;whiteSpace=wrap;rounded=0;fontFamily=Verdana;" vertex="1" parent="1">
          <mxGeometry x="462" y="194" width="60" height="30" as="geometry" />
        </mxCell>
        <mxCell id="0yja2uZejNiCgg6DEzDY-37" style="edgeStyle=orthogonalEdgeStyle;rounded=0;orthogonalLoop=1;jettySize=auto;html=1;entryX=0.5;entryY=0;entryDx=0;entryDy=0;entryPerimeter=0;" edge="1" parent="1" source="0yja2uZejNiCgg6DEzDY-29" target="0yja2uZejNiCgg6DEzDY-30">
          <mxGeometry relative="1" as="geometry" />
        </mxCell>
        <mxCell id="0yja2uZejNiCgg6DEzDY-41" value="" style="shape=image;verticalLabelPosition=bottom;labelBackgroundColor=default;verticalAlign=top;aspect=fixed;imageAspect=0;image=data:image/png,iVBORw0KGgoAAAANSUhEUgAAAtAAAAD6CAYAAACI/3DlAAAACXBIWXMAAAsTAAALEwEAmpwYAAAJRWlUWHRYTUw6Y29tLmFkb2JlLnhtcAAAAAAAPD94cGFja2V0IGJlZ2luPSLvu78iIGlkPSJXNU0wTXBDZWhpSHpyZVN6TlRjemtjOWQiPz4gPHg6eG1wbWV0YSB4bWxuczp4PSJhZG9iZTpuczptZXRhLyIgeDp4bXB0az0iQWRvYmUgWE1QIENvcmUgNS42LWMxNDIgNzkuMTYwOTI0LCAyMDE3LzA3LzEzLTAxOjA2OjM5ICAgICAgICAiPiA8cmRmOlJERiB4bWxuczpyZGY9Imh0dHA6Ly93d3cudzMub3JnLzE5OTkvMDIvMjItcmRmLXN5bnRheC1ucyMiPiA8cmRmOkRlc2NyaXB0aW9uIHJkZjphYm91dD0iIiB4bWxuczp4bXBNTT0iaHR0cDovL25zLmFkb2JlLmNvbS94YXAvMS4wL21tLyIgeG1sbnM6c3RFdnQ9Imh0dHA6Ly9ucy5hZG9iZS5jb20veGFwLzEuMC9zVHlwZS9SZXNvdXJjZUV2ZW50IyIgeG1sbnM6c3RSZWY9Imh0dHA6Ly9ucy5hZG9iZS5jb20veGFwLzEuMC9zVHlwZS9SZXNvdXJjZVJlZiMiIHhtbG5zOmRjPSJodHRwOi8vcHVybC5vcmcvZGMvZWxlbWVudHMvMS4xLyIgeG1sbnM6cGhvdG9zaG9wPSJodHRwOi8vbnMuYWRvYmUuY29tL3Bob3Rvc2hvcC8xLjAvIiB4bWxuczp0aWZmPSJodHRwOi8vbnMuYWRvYmUuY29tL3RpZmYvMS4wLyIgeG1sbnM6ZXhpZj0iaHR0cDovL25zLmFkb2JlLmNvbS9leGlmLzEuMC8iIHhtbG5zOnhtcD0iaHR0cDovL25zLmFkb2JlLmNvbS94YXAvMS4wLyIgeG1wTU06RG9jdW1lbnRJRD0iYWRvYmU6ZG9jaWQ6cGhvdG9zaG9wOjMwNGQ3Y2NlLWNiYWEtOTQ0ZC1iNzQ2LTIyNjkxYmQ5YjM5MCIgeG1wTU06SW5zdGFuY2VJRD0ieG1wLmlpZDowZTYzNjQ3ZS1lNjZjLTFiNGMtOTAwOC1iNGM1MzdiZTg3ZWQiIHhtcE1NOk9yaWdpbmFsRG9jdW1lbnRJRD0iNkE1ODREREZBMkJCQTNGNzU4OUI3NDI1OURERjRFMDEiIGRjOmZvcm1hdD0iaW1hZ2UvcG5nIiBwaG90b3Nob3A6Q29sb3JNb2RlPSIzIiBwaG90b3Nob3A6SUNDUHJvZmlsZT0iIiB0aWZmOkltYWdlV2lkdGg9IjcyMCIgdGlmZjpJbWFnZUxlbmd0aD0iMjUwIiB0aWZmOlBob3RvbWV0cmljSW50ZXJwcmV0YXRpb249IjIiIHRpZmY6U2FtcGxlc1BlclBpeGVsPSIzIiB0aWZmOlhSZXNvbHV0aW9uPSI3Mi8xIiB0aWZmOllSZXNvbHV0aW9uPSI3Mi8xIiB0aWZmOlJlc29sdXRpb25Vbml0PSIyIiBleGlmOkV4aWZWZXJzaW9uPSIwMjIxIiBleGlmOkNvbG9yU3BhY2U9IjY1NTM1IiBleGlmOlBpeGVsWERpbWVuc2lvbj0iNzIwIiBleGlmOlBpeGVsWURpbWVuc2lvbj0iMjUwIiB4bXA6Q3JlYXRlRGF0ZT0iMjAxOS0wMS0xOVQxNjo0Mzo0NyswNTozMCIgeG1wOk1vZGlmeURhdGU9IjIwMTktMDEtMTlUMTY6NDQ6MTgrMDU6MzAiIHhtcDpNZXRhZGF0YURhdGU9IjIwMTktMDEtMTlUMTY6NDQ6MTgrMDU6MzAiPiA8eG1wTU06SGlzdG9yeT4gPHJkZjpTZXE+IDxyZGY6bGkgc3RFdnQ6YWN0aW9uPSJzYXZlZCIgc3RFdnQ6aW5zdGFuY2VJRD0ieG1wLmlpZDowOTk1ZDMxMy1jYmQ3LWYxNDktOGUzNi01Y2E0Zjk0Mzg1NDUiIHN0RXZ0OndoZW49IjIwMTktMDEtMTlUMTY6NDQ6MTgrMDU6MzAiIHN0RXZ0OnNvZnR3YXJlQWdlbnQ9IkFkb2JlIFBob3Rvc2hvcCBDQyAoV2luZG93cykiIHN0RXZ0OmNoYW5nZWQ9Ii8iLz4gPHJkZjpsaSBzdEV2dDphY3Rpb249ImNvbnZlcnRlZCIgc3RFdnQ6cGFyYW1ldGVycz0iZnJvbSBpbWFnZS9qcGVnIHRvIGltYWdlL3BuZyIvPiA8cmRmOmxpIHN0RXZ0OmFjdGlvbj0iZGVyaXZlZCIgc3RFdnQ6cGFyYW1ldGVycz0iY29udmVydGVkIGZyb20gaW1hZ2UvanBlZyB0byBpbWFnZS9wbmciLz4gPHJkZjpsaSBzdEV2dDphY3Rpb249InNhdmVkIiBzdEV2dDppbnN0YW5jZUlEPSJ4bXAuaWlkOjBlNjM2NDdlLWU2NmMtMWI0Yy05MDA4LWI0YzUzN2JlODdlZCIgc3RFdnQ6d2hlbj0iMjAxOS0wMS0xOVQxNjo0NDoxOCswNTozMCIgc3RFdnQ6c29mdHdhcmVBZ2VudD0iQWRvYmUgUGhvdG9zaG9wIENDIChXaW5kb3dzKSIgc3RFdnQ6Y2hhbmdlZD0iLyIvPiA8L3JkZjpTZXE+IDwveG1wTU06SGlzdG9yeT4gPHhtcE1NOkRlcml2ZWRGcm9tIHN0UmVmOmluc3RhbmNlSUQ9InhtcC5paWQ6MDk5NWQzMTMtY2JkNy1mMTQ5LThlMzYtNWNhNGY5NDM4NTQ1IiBzdFJlZjpkb2N1bWVudElEPSI2QTU4NERERkEyQkJBM0Y3NTg5Qjc0MjU5RERGNEUwMSIgc3RSZWY6b3JpZ2luYWxEb2N1bWVudElEPSI2QTU4NERERkEyQkJBM0Y3NTg5Qjc0MjU5RERGNEUwMSIvPiA8dGlmZjpCaXRzUGVyU2FtcGxlPiA8cmRmOlNlcT4gPHJkZjpsaT44PC9yZGY6bGk+IDxyZGY6bGk+ODwvcmRmOmxpPiA8cmRmOmxpPjg8L3JkZjpsaT4gPC9yZGY6U2VxPiA8L3RpZmY6Qml0c1BlclNhbXBsZT4gPC9yZGY6RGVzY3JpcHRpb24+IDwvcmRmOlJERj4gPC94OnhtcG1ldGE+IDw/eHBhY2tldCBlbmQ9InIiPz467keVAAB7iUlEQVR4nO29eZwc1XX2/9xbW68zo220ICEJrQgkIYQWQKyONxKD4wBOgt8XE9t4idc3cUzshDhOnHh5Y+w4No79w7H9GsexsWNjCHhjl0FCLNqQQAhtaBtJo1l6qe3W/f3RfWqqWyPNtKZHmhHn+/mUND3TXXVr6arnnnvuc4TWGgzDMAzDMAzDDA55uhvAMAzDMAzDMKMJFtAMwzAMwzAM0wAsoBmGYRiGYRimAVhAMwzDMAzDMEwDsIBmGIZhGIZhmAZgAc0wDMMwDMMwDcACmmEYhmEYhmEagAU0wzAMwzAMwzQAC2iGYRiGYRiGaQAW0AzDMAzDMAzTACygGYZhGIZhGKYBWEAzDMMwDMMwTAOwgGYYhmEYhmGYBmABzTAMwzAMwzANwAKaYRiGYRiGYRqABTTDMAzDMAzDNAALaIZhGIZhGIZpABbQDMMwDMMwDNMALKAZhmEYhmEYpgFYQDMMwzAMwzBMA7CAZhiGYRiGYZgGYAHNMAzDMAzDMA3AApphGIZhGIZhGoAFNMMwDMMwDMM0AAtohmEYhmEYhmkAFtAMwzAMwzAM0wAsoBmGYRiGYRimAVhAMwzDMAzDMEwDsIBmGIZhGIZhmAZgAc0wDMMwDMMwDcACmmEYhmEYhmEagAU0wzAMwzAMwzQAC2iGYRiGYRiGaQAW0AzDMAzDMAzTACygGYZhGIZhGKYBWEAzDMMwDMMwTAOwgGYYhmEYhmGYBmABzTAMwzAMwzANwAKaYRiGYRiGYRrAPN0NYJgziTvvvFOXSiUYhgHf92FZFqSUUEoBAEzTRLlcxooVK/wrr7zSOc3NZRiGYRjmJGABzTBDIAgCYVmWBoByuew88cQT2Lt3LyzLgmEY8DwPlmVBaw2tNUzThGVZaG9vt1etWiVM09Snex8YhmEYhmkMFtAMMwRIPANAOp32XNcFAERRBAAwDANCiPh3ruvC8zwEQQAWzwzDMAwzOuEcaIYZImEYCtd1LQBQSiGdTsOyLIRhCCkloihCFEUwDAOO48AwDERRBKWUON1tZxiGYRimcTgCzTBDxDRNbZpmAFQEtFIKQoiayLNSCoZhwDRNGIZBKR4cgWYYhmGYUQgLaIYZAkEQxFFky7J0MtpM0WfDMGAYBgAgDEOEYQjP805bmxmGYRiGGRosoBlmCCRzoAEgnU7H+c9KKYRhCNu241xoKSWklLBt+7S0l2EYhmGYocMCmmGGgFJKJFMxlFIol8swzcpXy3EqTnW+7yOKolhAa62P+SzDMAzDMKMDFtCjnnJb5X+zgMhQgAQUjPjPlGAgoar/HyvYFMQx79d1r4n6z0dB5RoSAhBm2LfKyieTbzYBrRGaAsoCoqoHcrrrhLs3wqkXwJTnTCI5iqKayDOA2NKOxTPDMAzDjE7YhYNhGIZhGIZhGoAj0KMeq1D5XypIWYloSoR9f4+qMeTIAJIRYakAIEB5ciVeLUuVjwKAWV2nAYFq5Lqvr1UTk9bxrzWAwKQ/i+r6BQAD1XZFEAKmgjIrmwYAq9H9ZRiGYRiGOb1wBJphGIZhGIZhGoAj0KMeM0y+UnGEOKzmQdem2fYlRysDMBSQ7QCqmdMJ+lKnQwNQlkDkAKodCKdV/hKNrWxv7D1169dAaFbWn2gVjONEyBmGYRiGYUYXHIFmGIZhGIZhmAbgCPRoJ6oGi2N3jLAu11kAMFUlFxm65jMasPveaFTfruKPAQBMVVngQqMbwLbk5uMws04Et2H2uX6IiieyFpGhECGCtiIAEeAAQAZW10nsNcMwDMMwzGmDI9AMwzAMwzAM0wAcgR7tRHHkV0GEhiGSBs4JX2YFoSOYwoBCBAMRLAgEEL6CEICMUtCREyFo11IA0FAAFFReQCACeoG+yLaCzgOAAX+5QDRRw9hswX4FsPYDoiThFEwYIfXRBGRoAoigFKBSGqpSsU+yDQfDMAxzegnDUJimeYw3f/L3QRCI+uqzzSAIAgHUVrZNbtfzPNNxnHC4ts+cHCygXwOUy7rNcUS3oLQKBQsmXGgY0NqA1oDQgJSehFHQACKonILKBwjOKZaK6OzuGt/d3f0m1/dmCiEC07FftW17n2WEc2ZMndaZES2PA0CIMOcgdRQQSiktDEPoMIAJESnTlFpAABCBQF9hEebMhW74rutaqVQqoN/7vi9t245OZ9sYhmHCMBRRFInk/SgpXpOiWohKbmOz7l/9bRsAyuWyk06nPXrtOE4I1Aps5vTDAnq0E+caV1034gC0GSKCgAbStugGANfDZIXgaDZjlRW8tK98JzLNjAJyEbxpGsHYInreu+foK1dv3vac2LnvZew5+ApCWUaoXURRgEh40AgBRBcCgGW0QUc2sk7uhrMnnYPz5l2Ac6cvxjgx+bcpI//vDlLrLcvZY8EAQkD4yEFYgETl5uCc4uPFNJV/+7d/O+ENPZvN4pZbbhFJ8QwALJ4ZhjndFIvFbDabLaLOroqEMlARuUIIhGFokJBt1v2rKs410CfKgyAQSfFMQYjjRciZ0wcL6NcQqRT2Q1o60hAhQsc2bO9w0LM0beX29Aa9lz28+td/9+zGp1H0uxCZLkphD0JZhjJcwAghRAQYiCPHQgh4nofADxCUQwTF7di2ZSfuD36N2WcveN2SucvPW7Zw+YdzhiyYQnYIALBlAREsaAAKYwCUT+MhYYZAGIbiZz/72QnfY1kWbrnllvj9QRDY9HBQSgkuZ84wzOmiKp7huq5lmmZomqYOw1CEYWgahhF3+g3D0IZhhEBF6AZBkKbPDgW6B4ZhGEeh6flKgpmizknxrJQSURRxRPo0wwJ6tFN139BIGGdUcjBEVaSmYMJ1FVLKUDDgOkqUXq/gXe2i94/3WJvafvnYg1i7di2UVMi2ZVBOleEFLkQWsBwLURQhiiIopSB01fRDSggh4LRpGMpHELnojHoACxChje6ju7Fl7ROTfrYu96Mrl78BVyy+qjzWbP+CAWtzCvn7oI0A2thfV9iQGUVorWsiNf1hGH3mLKZpatM0WTwzDDMioNSy5AhZ9T5V8zr5Gdu2I9u2hyyegYowp20opUQQBGYqlQrqo80Unab2VgV9M5rADAEW0Gc6BlzfR6uVQreEYfT4hQVpW6I36n3dA7/9cduvN90HIyXR0tKCAAE834WWGo7jQJsRXNeFlBKGYcC2bUjIWFBHUYTu7m5YlgUpJbSWMKUJ23EQ+UBvby8CKPzsZz/Dxt9tTr/xst9/y/LzVx4EACgFSL4BjGa01gP2flKpFIBjJ99ozdqZYZjTSyqVCrZu3fr1bDb7YKlUuioMwwmO42zUWqeCIJgDAHPnzv1flKec7PjXz+s4GUgob9my5S7btjcCgGmah8IwnBCG4XQhhAsAs2bN+mT1b2Eyas0pHacXFtCjHK96DgUkDEAZiCqqVEIjgnDLYSqVNbtKCNpCFGdZdviW1dsf+rt7H/gRivoogmwBnvYR6QhCCCgzgtYakdCQWiKdMituGaGGdhUUFIzIhCktCJgYmxqPMAzhqxKUDBEZLjxRhM6EkDmJQDtwRCu29qzBlvufv3Dxy8u/fu3rbvzX6fnZn7WQfXwM2n57Wg8gMyQGikAXCgWEYXjMzHG+8TMMc7rp7e1t+cQnPvH+rq6u96dSKaRSKRQKBSilkMvloLXGV7/61SfOPvvsfwf6IsZARXwPdfumaer9+/evvO222/7M9314nocwDNHW1oZyuQzf9zFx4kT80z/9U9f06dO/wCkbIwu2QTjDSaVN1/WitAHDC3XY9vOHfv53P/3pT1EoFOK0DK11HGWmRQiBKIriL7TWOv6baZpxCkexWIRSKs7bomH96qQL+L6Pnp4eAEA6ncYrr7yC//qv/zKf2PzEp07ncWGag9b6hEtLS0v8XqUU5+swDDNi2Lhx48sdHR1obW1FEATo6uqClDIW0plMBuecc843TNPUnueZdA/zfb8p2sn3fbl3797/6OzshO/7kFIil8uhq6sLQgik02kopTB79uzPk3gmyzsOQpx+OAI9ynGAEABCwFSIUjpQrmk4QK+ai5SxJ5QFJ3C6/nkvXnnf9x77d6zb+hRyE3MQhUrEWThdCKEB3QIpHAR+5QtrWBKO48BXnTDgATqAjAJoBehQQeoUpNSw2jyUSkehPBOOnYWlcwjdEIh8OBYQ6TKMtIbvHkaQ6YY0WrD56DbsW/OMecDY+pu3z/8DpDHl74HJn3c0XOGiVSlkrJx3tLqHZQUIVS16KCvG10qo6v3LAN9EThNCiAGPved58Y3+TMl5Jk/Wbdu2/Z3v+3NO9N7p06d/IJfL9ZyqttHw7rZt2/6uXC6vlFIWDMPoCcNwvGEYvWEYjnMcZ2uhUHjdokWLFnNEi3mtQCkPyTSMtWvXTnAcB0EQwHGcOGXRNCsjr6tWrYrTz8iBA2jcheN4Thq2bUePPPLI/Hw+j3K5DMvqm3NkWRZ838fll19+zHqacDiYJsACepSjVGUWXmREloQMTEui1FUYm8nk9qAULDDbrBfKKC/79//8d7xydDMmTJiAAwcOYIzZAiFEJfIsgMCPECofUmaQSqXgBS46OzuRyUcQiCBFZbheGhIGTEhtQgiBru5uZLNZWJkcPFehVCrBMAxYhkQUhQjCAJZlwTAMhGEIW+q4d79mzRo4HSH+5PIPQFcM7VxpoSAtFABwhRXmtJN84NGD13GcsKenp+0rX/nKp1988cUTfv7uu+/+Qi6X2zCcbUw+VA3D0IVCoeWb3/zmp9evXw8pJXzfRxiGSKfTiKIIvu+/afz48fjCF77wkVmzZn15ONvGMCOF/jryzzzzDGzbRhiGiKIItm1Daw3XdZFKpbBo0aKwGYL1eKluYRiK9evXw/f9WLQbhoGWlha4rgutNRYtWhQOtB7m9MACerQjfUMKCR0J15RSI4JI53LdMBEq299/FLtfvuO7/zhlf2kTTCvC/n2vorW1FWFgQwchLLcFiCoCWUoAsgdaaZhmhFyLQAgfWmuoKIKnNaAlhFQA3OoQ/Vh4noey1w3TdJBtsaG1AT9QCAMLhjEeSlkIIw86COEZEWxHw0Uvjhx9Bk8VfUgj/3dvu/QmuKLlm5aZOmpp6QoYQGQoSMBA1U8EAKAMARgwZHiCo8IwTYEiVkDlwUtitaWlpatcHtiB0fO8GUEQbBzOqJFSyrQsK565n8vleg4dOoRyuRxP/qWHs2macF0XR48eRSqV2jhcbWKYkUwQBKKjo+Pq3bt3I5vNxpFnSj0LwxAtLS244IILpgN96WcnO4rWX1EWADhw4MAbd+/eDcuqxIsMw4ij4VEUIZVKYenSpRPq18OMDDgHepQjRV/uMQCoECkhoTzPMxVU7p7/vmfK/v37oZSC4zjIZDIIgqDGgoxym5VSKJfL8Dwvzo0GKpZ1lmXBtm04jgPHceI8aIo4m6aJcrmMrq4uBEEA0zTj3/u+DwDxTcH3fdi2jZaWFvi+j8cffxyrN6x+j4CAH/ljhBDwPQ+QA6cIMMxwo7WuTKRFpRIY5T86jhPn+x9vATDsFTdN0wyr/8ffF8uy0N7eHn8PLctCuVxGFEXI5/MAAM/zTph+wjBnIkopYVmWXrt27W8ofQOofJ89z4OUErZtY+rUqRgzZsw+IPaBrvFhHkobKI957dq1D1AHNwgqo7VBEKBUKiGVSmHmzJloaWnpGsq2mOGDI9CjHAH3nEAFsKIxr0BAQSIohzoVOMUF/732e+seeOm/MeFsG70HDsAsOGhpHYcj3b3QTgAYBgIvhbRlIxIuoshHygSyjoMoAtzuEFlrDKAd6MiGUgpKVAW3rIiKlGUj6A1gWh7yeSCSZRS8MspuGYZ0oJRAEAk4TgqW5UD53fCDEpTpQQgLZbsTaUvhJ099bYozrmfvsrOufqaElk8Y5vhHk/tpIKjzvPPSlf8dLsTCDBtKKWGapqYHHtCX/1goFAa045NSFuujVs32wO4vKuW6Lo4cORKnS+VyOaRSqXjisGEYyGazv2tWGxhmtEDfvdWrV8OyLBQKBZhmRQpRx1drjZUrVwLoP++4ke9vf993Wt9jjz0WC3farmEYcYf94osvHsKeMsMNC+hRToQIpmECAgoRDMNEaEOoDbu3fGL16tVIp9Po6NiPsWPHouCWcfToUWTzrSh5qjJsJCsTvQw7Qi6XgwrLKBQKkNJES8tY9HR5mNg+EdOmzsbEiRORymWhtUZvqReFQgGHDhzEoUOH0NnbCy/yISwfWmiYpgnLtBH4lRuC1hqe5yHSlTwzGBWHDikEdFT52/33348Lbr1ssgnANKACX5uWLThVgzltkEDWWgvf90Vy8lBrayv2799/ws9HUZSln+lBOhyTKanQAr3OZrNIp9PxcDRQibAFQYAwDCGEQKFQuHrixInDmp/NMCORYrGY3bZtG1zXrdQ3qM4VSKVScUR65cqVnwNqR5BOpvN7vA50sVjMvvLKKwiCIB4hrk66jh2wVq5c+Wn2ex65sIAe5ejI7JDS8AAAUWQpBNZhHPzS/3v4327Y67yE0DkK27bhBiEMsxIFDsoBfNOHYWtElgHfi+BoCUtlEZUdWN4kzJgwC+dOX4QrL/m9ba3m+E+ljNx6gVSHgOGJRPXAIkqXAAFeOfzCnY+teWDO5leehodOhI6HcrEIK125xEKl4YYhhDQh7RSkSEMZIQJLoRgeRs7wsd/bi7sf/tqUd1710c9LjL9MGqJyJ4sgQJMnRGW4WqPYDgCCI9DMMEICOilOqdSv53mnrV0ECed6V4BkpJnStnzfh2VZSKVSlI619XS1m2FOFf1FkNevX7+jWCwiiqI4tZDmCGit0d7ejunTp/8t0CeAm1XAhNa3cePGrZ7nIQiCuGIrWcJKKTFu3DhMnz79H1g8j1xYQI9yDGl4QRg4FpwAhnQBpB574rFbOzo6YLaagGlWIlCBgiElNHSc0+x5HlQkkc20Qngherp60N4yHqsuvQqrllyBKWL6byPIzgwyrwgYHYD0ImgHgCcgoKFhwdriwbt05viZd0z//f/1sW2lRXN++8S92LRjfSWvK4riYTHbtgFRmSShqzcr6nkH5SJkGGHLli3YsWjH4jnjzoFl0MRBhjk9WJZVY3tFD0/TNIPBlDIXQvj083BEnuuroyW2C6VUxfmm6ixA8xhKpRJ834fW2m52exhmpBFFkYGq3SuxefPmCUKIOOeYaiHQ92XWrFlI2tYliecbDSIafTzbuSAIxKZNm6ZSqoZhGHBdF5ZlxfeUefPmHWOXxzZ2IwsW0KMepyy0E8AKAZQuPBi++PT9T98l0H4QxbAXkdCAAdjmeCgvgGGZCDwXZqoMrQPkZA5mdwgdpDF7woV4940f6ppqz18ReEGhxWnZb0RAxXq5ikYA3Wcxl5JGRx7Of8NEqLT/rQszZ7Wf/4ZVtz617aG/+9H930VBH4HIKYSGh55yEelcFpHWUNKGtG3oyEM5KsPO+IAj0Fk8gHt+9SPzL//kkmkS6T1aITABBZgKGgCFv6UsKa0yJrv6MMNM8iGZjAbRrP0TcSpEan8PccqlBBCnbCSHqauThJ3hbhvDnG76E8KrV6+GlDIepQEq8way2SxKpRJWrVp1zHroe5a0jBxo2/Ud8OTvH3/88dg6D0As4NPpNDzPw6WXXtrv+gazz8ypgV04zgCkhNLVeiJPPvmkoJKgNDECqJ0cYZpm7KIRhiEymQymT5+O97/j/TprZw9p6HzOyR31fZ0aVAOiiqAmRxABcXDZnGX73vOe92DcuHFQSsF1XeRyudihI+nOIaWMh5yllOjs7MQLO1+4RQCBaSBEUiQnbh+GMEpDOW4MwzDMa4v9+/evJLcomrCXjEZnMhksWbLkomZtrz+hvWvXrpuOHj0a10cgyzoA8TN60aJFPINwhMMCerQTQUgBKJTP2au3P/XrzfcizB+Ea/TCsEIYGpBBGgIOBBzoyIQhTVjKghmamN7ZjnODefin6z67bTrOef0MzJ3bpjLPpgIZpJVwEMGAgIJZbIdZbIdVbNd2cUxoewjtMIAOgQgOPKSFb1pWIYe0O/k7LZg3dXH2LWPe/ebbt7UWz8FEczbcwz7yTgaGVHD9QzDtMnQUwhAmlHLg6xTCVIiO8h48tuHHt3noXOzCa1MSfcJZ0M9mobIwDMMwzOBYv379k4VCIU5zEkLEZbQBYPLkyZg0adIzQ7WqOxGbN2/+fqlUii0yqR1ARUBPnDgRkydPfmq4ts80BxbQZwA0ivzyyy8bXV1dSKVSMKu5zxR1pnxN+t/3fSil0N7ejne/+90IEEwQECh7buMVAMMoAw0HAAwHHVIioD+dM+GcH/zRH/0RgiBALpeLfaYdx4nbRflnffujsWPHDnR6ne+OEGUiDUAn0kgEoKG5UiHDMAwzKEgQr127No7yUuU/cqqxLAsXXHABgOGZs0A899xzsXCmIipUjTAMQ6xYsWK4Ns00ERbQox1Z0c+96P7Y6q2Pi6A1RG/kw9Q2DE8iFaaQigQ0SoDwoUUIHQqgN4dJcibedc1n/z5fnHdWHtNn6qL9u7SZqtxJBAAb3TAiBSMwAFnS0LkQKqegchG8aRG8dljK0rbXoUVQQFU4SwEYIYxUlO421LgvXzbjunlvuPBG7fRMBHrSSEcOHKEgQxeOjmD6Eik9HtBj4IYasrWEo3orntt5//tCdN4aCT8VyeqEwuotTVQXhmEYhhkIwzC067rWxo0b4wnsZLFKk/fCMMSqVavWJH3fm4lSSpTLZWfjxo2IoghSSpimWZNe6fs+rrzyyruHqw1M82ABPcrREYQ0oHuj3tdt3749nmVPX0agkv9Ms30BxHY98+bNw9RJUzen0pWaJE4m4/a9CYOO8ArLgjBNBQULUWXRIawgQEpKCQWVf93Fr3vZtm3kcjmYpolisRjfOADEkfEwDGEYBoQQ2LixUmlYQEBKaB3BoAmNAiI4fosYhmEYpkIYhgIAdu7c+ZUjR47Euc9SytgLmib0nXvuuZc1c7JeUghrrbF9+/bvHzlyBLZtQwgR+0DTXKBsNot58+b9L54wOPJhAT3akYEBeOmX9740+4gqoCxDaDMNodKwoyzsAEhrQOsilOyFkCGEMDAuPxFXLroB3YVx60OR3R8i3R0KicDwjUCUU4FZBozAqIR5rRBRultEuW2matlmqpZtdtSyzY6y+3tgjSkJ0/INbSgncuGEAewwEHbkWlbkZoQspND6Quhnf/CHr78ptINxEMU0ssYYSD8FUwnYIoTybAiVgWlFcFURoV3A7s4n0YODtyt4Y8JKPwBaRwAUgMiqLAzDMAxzfMg9Z82aNe+n3GfDMOLcY6UUoijCokWLkEqlmhqcSVpdmqap161bdz2AGpccALFLzuLFi/utLsqMPFhAj3KUqmQ27Nq1SyRdNbTWsb9lvVetlBItLS2YNWbWM9kstilViepGGoaAgCnNwJRmAD1wnrEJeRQAIkRWhKhyR4giIAwNANDQCHTgtNqtP1iyYMkOulElrLRiNxDyig6CAEIIeJ6HIz1HRDksTwYACCghBKioigbbcDEMwzAnRiklgiAQzz33HAzDgO/7cRQ6k8nEkwgvvvhiBEEgKGLdDEgM0zo3bNgArTVc142LpiTTOJYtW9asTTPDDPtAj3KkMBWg8XznYzBau2FoFyqIoCMDhmnB05V0DakjiLBqFac13jH3/9zbFk79I9OENk1Q3nOIZOaGSJjPS/TbI7YRBQBgwgyhqi7NAtB2aACRoZSpsobVpeF0W8HUxRdNXV7auH8NdpU2IZ1OQ/gKofJgpS1EKMFTLpCWCJSGERnY9uo2zFxwIUIgZRooawglhNAqFK5hWm5/bWJGDhRdaYRSqZR+9dVXb9+5c+dtHR0dKBQK8DwPlmUhm81i3LhxmDlz5t3Tp0//QC6X66HP1futUpW++sph9Lq+/PUA+xGvo5FyvkIIv5HtnIhkEYWB2kM+0EEQxEPDVECJ8iyllL1DbVNy257nmY7jhEopEUXRMZ61YRgKIQTqi9L0tw+u61qpVCqgfR6ogMShQ4cW7Nix4/49e/bM6O7uBlV4y2QyyOfzmDp1auc555zz++3t7WuOd+5835fDUWq9ft/qjwNRv49Hjx6dsm3bttU9PT3Tjxw5Inp6elAul+NUA8dxkM1mIYRAa2srpk2bdvfUqVM/ksvlOk+0D8NRjKO+2FAUReJE1zxdK81sw0AUi8UJW7dujb8bFIV2XTeeSHjppZeeTZavzcY0Td3V1dW+efPm2DZPKVUpOBYEKJVKSKfTWLZs2Y1N3zgzLLCAHuVIKaERWuVyuRJxNqoR54T7BlDJe5Zaw3EciMBAe3v7Zyxz+DMgTEPEN2rbsjFjxozyxv1r0mRiP9AQSHd3NzR0W+xiV72vJV07mJFLOp1GuVx20um0l3xo9vb2tmQymV4qjXv06NFz169fv+mhhx4SGzZsANlM2bYdi3CKGFVnrt+UTqdvOvvss3HVVVfhjW98Yy6bzRZJeJFo7c+KKgxD0zTNYDCi1nVd69ChQ2+2LGuv67rzoyjK53K535VKpYWDech2dnZ+JAzDcbZt7w7DcJIQwpNSFqMoyg7m+Ekpi77vTx83btxPW1pauuj3pmnqQqHQUiwWZ5TL5YVRFOWFEH46nV5fKpWWSSlRKpXi0sSpVApBEKCrqwuZTAaZTAa7d+/+ntb63YNpx/GwLGtvW1vbhlQqFVDFt6oIPUaokVjetGnTj9va2u6SUhaDIDjbsqzdWmvbMIwu3/fPKRaLbzr33HPfVV1/XLyiUCi0pFKpXtM0dRAEYufOnbc/8MADn96wYQO2b98OKSVSqRR8348ryhmGAc/z4Pv+WMdxnpwyZQouvPBCXH311Q8uWrTozck20vXQbIFZXwqajkOpVEpnMpkyXbNaa/Hoo4+Wfvvb36ZeeukldHV1xTZnSaci+pkiqeTpHwTBTZ7n3ZRKpTBjxgxMnz4dF110EebMmfP+qVOnfnM4q9r1U2yoZr1KKaGUElJKbZqmPtXi2TAMvXnz5i1hGMbPRCouRJMI29vb4ThO53CkT9C537x58xZKGyH/aQDxtTtp0iS0trY+1OztM8MDC+hRT2S4bskpFHoQhB7i2inVLyYNCwF9USlbZjFhwsT9gDwlpbJDpYU0NAREMHvWXE89odN9VdxOLEI6OzsRIpybAh5N/n44IgRM8wmCAOl02gvDUDiOE5KwzefzPUBFSP/P//xP93333Yfdu3dDCIFUKoV0Og3f9+MIqmEY8Yx5ylksFAqV0u87duA73/lO4YorrsBHP/pRCVTEUH3kmQR8KpUKBhtFfu6553Z/+tOfnuR5XjzRiCKAVHr3RHz4wx9+k2VZbwIQW2bRz4O5hsMwRCqVwjvf+c673v72t9d8YMuWLc/cdttts6kN5XK50kGu2lRms1lIKXH06FEopWDbNvL5PGzbRmdnJ774xS9OKBQKPx+wESfA933ccsstuOmmm2Q6nfaSf6sXZ1UHgvwnP/nJ67XW1/f09CCXy8H3fZTLZdi2DdM00dLSgnvuueddQG1Um0Ybnn766W2/+MUvZj/yyCPIZrNwXTc+tiSe6dhSJyKXyyGKIuzZswd79+7F7373uzeNHz9ef/zjH3/XmDFj7svn84dc1804jlNqpnhOXmeGYehisZjNZrNFAMhkMmUA2Ldv37vuvffeO3/5y1+ip6cHLS0tqO57LJqT14rWGmEYxhZoQRDEIwxkD7pr1y7s27cPjzzyCJRSd44fP/7OlStX4qqrrlqzZMmSlf2dn5MhCAJR/X7q+u8b0DcK1F9kv7/3DyerV68eS/cPKWWNxWsURViyZAls2x6W4ly077/73e/GUgeIRDRN8BdCYMGCBWhtbT0yHG1gmg8L6DMAz/NsqupXTxzpNSQgNHzfx/hxLTBw6qr4mYbQfhgKy5QYO2ZsKYqiNrqJITrx/bNQKEBCHqbXWickd80LZiRC0WPTNDVFoulvv/vd7zruuOOOCZ2dnXGJaXJioXQDyvEPwzCuXGkYRiwsoihCsViEYRi4//778eyzz0Yf+9jHti5cuHBhfZRLCBFH4AY7TC+ldAuFAtLpdBwNj6IIpVIJmUwmbt/xIEFLs+wpnaK67gFLgTuOE4tC4Jg0jlxS0GezWWitUSwWY2FFHY/ktmimf0dHB7LZQQXCj0s6nUY+n4/FWH0aBDkQWJalDcPQuVyup7OzMz4u5XIZhmHUdJp6eyuZJUopQefQMAzd29vb8vWvf737F7/4BbTWaGlpQbFYjDsKrutCa4101VXIdd2a6m5CiNi+rLOzE729vXjXu95114033og/+7M/M0jYkrBrJFXneBiGEa/HdV2LtnHkyJGZlmUd/frXv370qaeewtGjR9Ha2op8Ph+nK5mmGY+6kMgDKkKLzqnnebF4pt/Rd4VKU2utcejQITzwwAP45S9/uWLSpEn6yiuvxC233DLku2d/IwxJYUxRb/pdEAQiiiLDcZzwVE+Ue/755+PvAXVIqCPr+z6WL19+aDidL8IwFBs2bIi3TakidG9wXRfLly/v/0HOjEh4HHyUo6ERROVpGhFMU0IIjSgKoQUQQcMQElGoYEoT0rLgexHGjZ0IRMIbeO1DJ9K1EteGvd8wDAhUloHwPA8GjFfodSw4OAI9KrBtO/45KZ6/9a1v6S996UsTuru7IYRALpeLo2dKKSil4rLvlmXFgoL+JyGayWTih6DjODh48CD+5m/+Zv7DDz8c0KQd+v9k8pDDMGyhthWLRRQKBViWFUc0B4IEbnIUiPaPXp9oSXrFAn2CJQxDEYZhLpPJIAgC9Pb2wnVdBEEQC0qa1Z/JZGBZVhy1dF0XjuNg3LhxA25/oIXWlzzGJDp935eWZelkm5VSIpVKwbIstLS0xPumtaZUi7hzRFFNoFJ++YMf/GD3b37zG4wZMwYtLS1xR8D3fRQKhTi1wff9OHobRVEc4fZ9P849BSr3llQqhe9973u49dZb1cGDBxdV87cFbb/R66Wf60fQflBONwAcPnz4wx/4wAeO/upXv6rc4wwjTtmwLCtuKxW8AhCfUxJdvu/DcRzQ8YyiCJ7n1Yw2FAqFuDNKeb47duzAc889N9RdA1BJcar/uT9hTL+rRslDACgWi0PrvTXAnj17rt2/f3/cIaFUsGrb4DgOzj///LnD2Yb9+/e/5cCBA3GQgL7b1PmxLAsXXnjhRKCv6AszsuEI9BlA8osYJfK7kg/h5O+y2WxlyPMUdJ/CUMG2jKoAiGDCfMWyrKVAQgyf8PN9QcRIQ0iZuK+wiB7xBEGQ/FlYlqXvvPNO/cMf/hBRFCGfzyMIAnieF18PjuPEE+BKpVJ8bQOoieAKIdDZ2QkSkRTRCYIAX/3qV9Hb2xvdcMMNceSLhFxy2Hmg9kdRZFMEOJVKwTAMlMvlmtzFAT5fEzGndieXgT5fzW+tSQeIokhYltXlum6OIrjJvGfP82qEdDI6S1HeZLT2ZKG0sGT0sSoCdX2HxTRN7bquZVkWyuUyXNeNo8KU2pJKpZDP5+Ohf9M09csvv/yJ22677XOFQgFRFMF1XZRKJbS0tMD3/Xg/aISgVCrFqUAkSE3TrGkzHZdyuYzW1lYcOXIE73rXu9b/y7/8y5fnzZv3Md/3pRBCDzUiaZqm7u3tbaGUJcuy9G9/+1v1+c9/XoZhiHQ6jd7eXqTTabS0tMS5/5lMBsViMR6VAVDTEaP9oM4Y7VPSW9h1XaTTaaRSKRQKhfi1YRgoFAoNTYY9HmT59vDDDwff+973zGKxGHdm6y3i0uk05syZg4997GOZTCZTpmj8qeDZZ5/9OX2X6HtHHW+tNebMmYPkHIPhYP369T8PwxCO49R0vuk5PWvWrGFvA9NcWECfAWgE5ygRAejLp5IyglI6foCrUFcfJjZ0oGGZlfy7ptKPFjAMoyJ8haE1NASMI4Coyc0+EXHkrmIPoo7nBsKMTHK5HLq6utrb2to6LMvSX/ziF/UvfvELtLW1xRFHKvpDw8/0wA3DMB6Crl+AingdO3Zs/KCm9XR3d8NxHNx1112YPHly16pVq9qSbWpEFBmGUbZtOwdUOgPJyWmDcRhJRp7rH+AkfE5E0j0jKXZs24601iZVUCMxSmKL2kf3A4q8UWTTcRyk02mUSkPL5CLhS/TndpL8WWstAdRYbdJxoIhq1R1BA5XI88c//vHPBUGAcrkci2LKnbZtO15PMh0EQJxDnxToSeFCx4si1kIIfPKTn/zoP/3TP2HevHkfG9KBSUDiuVgsZjdt2rTpC1/4gqQJsp7nIZ1OI4oi9PT0xCMvQRDUCGq6fiiCnoyiUweNzi+dl3Q6jZ6envgZQO9LXCNDvpfSBMhSqWTu3bs3zssmG1I6PzR5z7KsOPf7VDpxrF69Oh7hAhDPpwAqVrCXXnopgOHNy/7d734X519TelpyJOqyyy6L3zucZcSZ5sEpHGcAdHNNRiKSM7bJsicIAlD051RhSGjfDwwA8IPKzT1pHD8QcaXC5C8jCGiNaID8U+b0UyqV0NbW1gEA/+///T/92GOPQWuNcrkcX5tA7WgEiRzTNOG6LjzPqxGr9OChXGSy9iIBTpFJpRS+8pWvtB4+fHiOZVn6ZIZFpZReuVyOhYFlWbGH62AmAZJwoX1M5q8Cx0aj6xdKb6BtJYfMoyiyi8VinAZB4pFEPq2DxAuJaHp4kzgbypIcYQD60mWq5y8+qXR+bdv2S6USlFJxpJhyuOm4VD16dRAE4jOf+cyTvu/Hk+tc142PG4A4ZYGG4WnOB1VbTafTsaBLjlwk75H5fB7lchnZbBZHjhzB3/7t33706NGjU5oxjJ5cR3d394Wf+tSnZtA+EjRRlqzpxowZg2w2i+7u7nho37btmkh6GIZxrnQyykvpAEClAzF27Nj42UCi9mSsJY8HRaCTubz0rKFOHH13bNuumTNwqsSz67rW5s2b41Et6ogkJ/VecMEF36b9GA5835ebNm2K00foeNH9QAiBpUuX3un7PmuyUQSfrFFPZEWGHi8QASYgTQGlw3gilpQmtK58SR3DhApC2KlTUX9EKnL5SDlWGEEL27IBiIOGtBBFg4tAx2sDAimqOlpCQwhIY+Acaub0Qg/MJ598cv93v/tdhGEI0zTjyVzJYWkSQQDi65fSOSiKRUV4bNuG7/s1D0FKdUimLnV3d+Mb3/jGS0BfVKeRIgmGYbgktOiBR+kc9eKxP8gRImnFRx3dZJrViXKMk2lYySppWmuDjhdFIOujWiR0kxHzIAjiSO5Ql8R+nvCYJvKgDYpKkiCk80rnmkTyHXfcEW3fvh1hGMKyrDhnmfaBxIhhGGhpacE555yDFStW4JJLLsH8+fMxZsyYOMJMaSyWZSGVStU4XHieh1wuF7uYdHZ24tOf/vTeZA529X3xiO1gxXVyHbfffvtj5BRCOcsk5kl0JkUu/V5rDdu20d7ejvPOOw+XXHIJVq1aheXLl+OCCy7AzJkz0draWhNVpWvC87x4IiqltZD/cTOhDhptPznCSNc8dXSayWDOw4YNG16i1BK6lkqlUjzRtr29HbNnz353ta3DEvl9/vnnt1PxFhp1o+9nGIbI5/OYP3/+B5rhF8+cOjiFg2GYYaM6IUr+3//7fyclJ8O5rotcLhcP3VuWhRkzZmDFihVYunTp3VOnTv2gbdvFVCoVFIvFbKlUmr579+4fPvLIIwtXr16Nrq4utLS0wHEcHDlyBI7jxK4LJDZpiHzt2rV46aWX/nnu3Ll/TUO0ybzUEzFu3Lh/+ZM/+ZM7Kb+WBKmUEj/72c8GTIG49tpr0dbWFgshemjTegbqRJIwnj9//hP1f5sxY8Yf33jjjQ8khQpFmX/zm9/g4MGDcZEGsogjgSalxPXXXx93WE4W27axePHib1O0+WQieInoOpRSmDJlCjZv3vx9Gq2gDkQul8PBgwcxduxYWJaFCRMm4IYbbsCsWbPunDNnzp/3J3727Nlz7bZt2376wx/+0Dhw4AA8z0Nvby+y2WwsUildKNn2HTt24N/+7d/0Bz/4wfiXyYhpI0LLNE39wAMP6IMHD8YdRuoo0OQ+OkepVApdXV3IZrN44xvfiBUrVnSeffbZt0ybNu1eWp/neaaUUtWnIvm+L/fu3fvO9evX37Vu3Tps3749vgZoZIJycKupMkPOgT7dJNtPYrp+n5599tkZJO7pO5Csfnvuuec2xdLvRDz55JMzqDOTTAWjSPjChQuHc/PMMMECetQjA2h5GJCAljh2UCGqLqcZLQCR8J3WEiOiXcywIqXE5z//eVUqlaC1RldXVxwF6+rqQmtrK972trfhbW972+L29vYNwLF5iNlstpjNZl9obW29YOnSpdF73/velp///Ofd3/3ud3H48GGMGzcuLs0L9KWAUNS6q6sLP/3pT2+77bbb/prWm0qlBlWF75xzzvnGe9/73m9Qu6rRXA0A69at0y+99NIJP3/99ddfN2XKlF8kH+qN5ln2936llJg4ceIvb731VlH/XiEEnn/++ejIkSPHTDojkR0EAa655pp3zZw589uDbUd/UA4svW5UkFGnh6L71BG66667bqJc9iAI0NbWhq6uLrS3tyMMQ7znPe/BW9/6VjFQlcdp06bdO23aNHPVqlXyqaee6r3zzjszHR0dAPoi9ABihxeKahcKBfz617/G1Vdf/f0FCxa8g9Z3MsVHfN+X9957L3p7e2PRRNcqjcJQhF1KiVtuuQXXX399JpPJlPs79/2lPiilhG3b0cyZM789c+bMb7/1rW8FAOzateumX/7yl99/6KGHcOjQoXgfq9aPo1o8JzleZyAMQ7F27do4Cp5weIlHAC655JJoMOsaCs8++yyAPieVMAxrHEEuvfTSM+ZcvJbgFA6GYYaN3t5erFu3LnZ9oKHmaslafOc735n7rne9S5J4DoKgprxzcl30UMvlcj3XX3+99aUvfemeWbNmoVAoVAoE2XYc3aXhb9M00dbWhl//+tfo7OycBlQieIMVQWQ7BlQiickHa7E4sImA1tqpfxg3OkmJ3p9si2EY/TpEUBvL5XKcGkGiiSbs0WSqXC73VCPt6I+keB4KSimkUik4joPu7m6sXbsWbW1tkFIin8+jq6sLhmGgtbUV//Vf/9X61re+tV9rwv6G9MvlsmPbdnT55Zdn//3f/33MBRdcEOcgU3Sbjg39DFTO73/+53/eBNT6WTe6bzt27PiX7du3x9FPyn+1LCt2ZEin05gyZQruvPPOG//3//7fgibaJa+V+n1Lvu6vSInv+/Kss876wTvf+U7jhz/8ofjsZz/76oIFC+J0mTOJ4wnew4cPX7h3714AfS4mSdeq6gjK/MGs62TwfV8ePXp0ypEjR+KOK9CXbkb5/4sXLz6fPsMWdqMHFtBnBOYrA37lqi4dEBqGjgCEp2n0QR6sXHY8+PFaIAxD9PT0YNy4cbAsCz09PQjDEBdffDG++MUvyra2tpeToiT5MxWh8DzPJD9doK/Axvnnn3/Dpz71qbvT6fQxk+Uowkei2nVdPPLII7uTxTkGA7WHShHTz7TugYiiyKb31+cJD+ZB6bquRZ/rT7wlRXXy51QqFec5U7455UFTKkmhUFg54A4MQCP55P2RTqdjBwwhRFwEprW1FaVSKRYZAHDRRRfhzjvvbHUcp0Ce0uVy2TmRkAyCQCT9x23bLv7zP/+zsXz58mM8tmkUgyZ1RVGEJ554Ak8++eT+/o79YIXO7373u48mjz+l0QCoKbf+pS99afHZZ5/94+R5TB7f+n07kdAzTVOTDSCVtF+2bNnZX/nKV8RnP/vZV+fNm3dGCzXat/Xr169LVvurt3adNGkSxo8fv2242iGl1GvWrNlL13iisFQ8+jF16lRMmDDhheOloDAjFxbQDMMMG9lsNi4SQZPbfv/3fx9/8zd/IwzD0P1FY6tFQuKHSbJqWXJ4tVwuOwsWLHjHrbfeWlOtD0AciSbf4Hw+j4ceeuik9yP5UKOfBzMRy7KsA/T++vzgwTwoU6lUcLwoZH06Aa2/Wu0NpVIpHrqmyZdCVKr/Vd0bhlxM6UQR0sFAowTk6EFilqK05MQyZcoUfOITnzjHtu0CCUPDMHQ6nfZool5SeBJJ72+gcjxt245uu+228QsWLIDneQiCAJlMJq5SlyzYE0URfvrTn05K7htNJhys0Fm3bl28Llo/UBFz+XwepVIJH//4xztpFMayLO37viyVSumkDeBgOyv156FUKqWNanVIz/PMlStXTvvwhz8sz2ShRvu2evXqGscNGp0iAX3hhRcCGL6or2maevXq1TVFW+g6oHQSakMjk3KZkQEL6FFOX4azrFuOF+GlT2hAR6f0Syogz9gbNtM/XV1dsCwL+XweWmssW7YMH/zgByVQGzFNPsBM06wR1vWpC/RzOp32SqVS+m1ve5s477zzYgsvmiyVnHWvlMLOnTvR2dl5bqMPy/4eZtWIdCOrOenIkud5JrU56WNM4pAEHQlo+j0JBsr9pIgrReAsyzpwMu05HiezfzSBFOhL41BKobu7Oy76IaXEP/zDP9yWyWT2UcoG2fkFQSCUUsI0TZ0cLajfjmVZNY4auVyu86/+6q9unDx5clxkhvy0qTw2FWjZsGED1q1bF1dDNU2zoRO/Z8+eOPJJea/U+ert7SX3kPFApVMIVCKXmUymTLZmye9EcjSkP+rPg0iUsD/ee84E6o9JuVx2tmzZEjv/AH2+6iSkL7vssoeA4TseQRCILVu2xNtPjm4Ale/spZdeekzPvhGHKub0wQKaYZhhg4biyXHgL/7iLy4noWNZliZxnLSYqxesJ/ILp1zRa6+9VtMktOQMd8r/DcMQhUIBu3bt+olhGLpUKg26BB8Jl/oo9GB8zKMoytY/2BuNLjmOE9K2+0slIIFEKS8AaiZVJl0fqIhD1QlgUiPt6I/j7ctg99GyLLiuGwvlUqmETCYTV0wEgDe/+c2YOXPmF5KpGJR7bVmWrhc/9a/7KzFtGIY+++yzf/z6178euVwu7miRnzbl0JOf+OOPPz4DqAiiRsRWV1dXe6lUijt0dB7IgSWVSmHhwoWgapm0j6Zp6uNNkKRo8mDbkE6nvTAMheu61qnyXj7d9Pb2tuzfv/8WShmjNJmknaRhGDj//PN/r7/OSLMi0jt37rz9wIEDNSNBSQcewzBw3nnn/R5QOee03cHcW5jTDyeinna6XgcARbQ9AwAO0G0CWiMwBQB0WVfAwB4v3znNhz9XwjisEI530fGvnegwCyhjn70LOctBoVCGdFIQCGClgVKpDCuVgl8uwzFykMIAtAFlBHgYdwetYjwEskNqvYAX/wQJyGqfjO76JgyUoko5ZgMSHjz02EeQx1iUensQZANAhBC6UtxFaMDQgECE0BAopF/BDvx2nUAaeYzFWEx+RsG+z0H6cQPOFolMhwGphEZffFvBgFGpWqhRibJHiAwAkJDVOyNHw08FVOxBa40//dM/xZQpUx5P/r1eEPaX0jEYsXDFFVcY3/72t6N9+/bFPtPk8FAqlZDNZhEEAZ555pn5ixcvjidpDYXBRomGOolwIJIii7ZV/wCm1AESE1XXCx9D5Hj70sg+UuQ3l8vB87y40BMVD7n11ltb649huVx2koL6RJxoouPNN98sH3zwwaizsxNAX44sgJoKf7/+9a/x53/+545lWQ0ds+7u7tf7vh+nzyRTVojp06cjDENhWZZOVudrZlS0GsFuyoTP/khG2JMFvajzSpVGkyMozSZ5vPL5fM9PfvKTO2mSHuUgU8fMcRwsXrz4uMd4KMc+6Zzy5JNPfjqTycQjLcny7alUCsuXL4dSyjBNMwSQrBrJz6dRAAvokY6BPSjhT5HH427kLpLSwAMP/c/7ntrwK3hGEUdVD9ras1XvUAfa1PB8D75fuWnRZBXDMCC0RE93Ac888wy2bn0RXm8EK2wdUvPiNEpNsrQqoKvPh5JbrJTd1T5cVUY2X6n2NWnKZERRCiWc+J5++PBhfPErX4Sl87CDLDLGmKVvuOq6iZcvufLxAMFkB+gAgCjSkPRQklzye6RArg8tLS1405veNDfx+6ZaRVmWpRcvXoyDBw/GKRtU+Yyi0ACwf//+Yfd8ZQYPpZTQuaLh7VQqhUKhgJtuuglJv27K+x6seB4I0zT1DTfcgLvuuiuOhDuOA8/zYg9tup7WrFnTc+WVVzZkX1Eqla5Op9PH5HeTwKSiNiS4SDyfyjLXzYA6G1SBkDpp1HmmioTVYj/D4j9db/m3bt26WNRT54XSmTzPw4oVK5rdBAC1nce1a9fW+McDiK+pKIqwePHiGltCjjyPLlhAn24i5xkAMGQllGtWq1ZHCHMAYNjWHhj4Zgld3zuo97zuzn//JgJRxvbicxg7dixKfi+sUgDTihBpD1GkIaSCqj6UTLty89cIIGAglTYgEMD1ehGIAMh2DK392gRgJuK5VRFbFdLCDqAzPgK/DEOEKOpOOGN8HHG3VXrjoq2y16jcQyKpK9FrAUBomFkDfhBASxeeF6CoCvj+r++c+vTuh37znus+tM1BajngdCsRGqa0Q0SIQztRqIU45gqPDMDsex8L7WHFcRyUy2Vce+21NbPdh+MBeskllxR++ctf5rTW8DwP6XQ6fohTvvKOHTuavVlmCCQn1lFJawCxJ/S11157cfL9WmuB6j2yWULsmmuuab3nnnu6Ozo6aipEJisdBkGA3/zmN/aVV17Z0HaVUi0kyGm/klXoKGXEdV3LMIxwNAoopZRobW09dP7550+gybv0naOOAu3rlClT4Pu+nU6nveEs5FIoFFq2bt1aY1tH6RMUJV+xYsXFA6/p5PA8z3Rdt3Xr1q2xE1Cy8iDlwi9fvvw6oE/80/E4Gb9x5tTDAnqkozAGBo768M/91re+hVK5hO7yEUyZMgVBEGDMmDGxLZVSPqRZ8cMt+uW44pEQAkIL2HBg2zaMyEAUoVqNyh1a+3R1UuIxArr6SggUCgWEUEhnLAgpYQqBkldCa2sr/BMXcqtELXwNX2nI0Mb41nZ4SuGFF17AvWPunfOOy9/XbsDpjodEFYxqE0IpBTTr49MKVQC75ppr3kH5fVXB1LQTQw+f+fPnrzAMYzM9uOtLWgPAoUOH+OE0giAxSQKHopee52HRokWYPHnyU8nIYlJwNWuiVS6X61mwYAG6u7sRBEFc/trzvPj6FUJg8+bNDYv2bDb7gO/711MOblIg077v3LnzmDQTwzBGU/RZX3LJJe3Lli2r+V7ReaN8eNM0dbFYzNLoQbPFc/Ke8vzzz++mdBmK/tNzUgiBKVOmYPLkyUP2QU+SvE4dxwmfeuqpV8MwRCaTid1ebNuOO2aTJk0CVZisv5aTHUVm5DL6urtnGpHVjcjqlkAgQfkMkVCIMgpRBhnsg4PyT9d9f8oetRU9uf2IJnVhH3bgoLEbPW4HetwOaMtDKD34URm+qqzGNE04joN0Og3HsSFTgLQUPFFAWR1FIHoR2HpoS6qEINUDL90DL12svi4hSBcQpAsInSJkPoAzRqMn6ERJHYWPErTpo+h3wYwAMwKElhBaohp6hhZAaACeCCBaNVKTJbzWXuzwXkBnfi/K7Z341Uv/hd37diwGgpQUygJCMxShgogqyklWEkv6nQ0ioTn6PPyUSiXMmjULM2bMuNswDB1FUc1kmWZA4njMmDFbyO2DioUkq34BleHTrq6uc5u1bWZoUHQS6HMooPz1173udQD6xEVSvJLzRjPaoJQSV155pZ90yaCc3WTp9WKxiJ07d36kkXWPGTPmvnK5HAs4EuOUugJUhvmpHcnPjhYrM5r4WxV9sWsOnZ+kg0g2my36vi+b+f0np5Lkth955JFWx3HifHNKMaEI8LJly5q1+ZgoqnW1Wr16dYoqTBLUBq01li5dCgBx/jv9XH0fP5tGASygRwFhGIotW7Ygk8nERSFs20Y2m0U6na6kalRv+ADiYWvK+6KoSrFYRLFYjIdKyZNyOBfP82IBI6WE4zg1w2gDQW3v7OyMfVMpWqWUwksvvfRfCirOSzRNU8Pgm89IQSmFJUuWxA+5hMVa084Rrcs0TT1u3Lg4JSAZeU68F0ePHv1fzdo2M3RotIDEDd2/lixZcjnQv/NIMyejGYahly5dOoFylClHlq4daptpmtiwYcMdjaw7m80eymazNVXwkvmwhmFg3759uOeee+Lh+/5cQ0YyJJBpMmu99zZQ2zmwbTtq5veftpsUops2bYpTSOjcAZXS8WEYYuXKla82a/tEUvQGQSA2b94MoM+qkfLC6fm7fPnyTqD2PCdKy4+Kc/9ahwX0acc0KkuSKH7tRa4pTBj7C7txuLQXTpuCmVPo7j2MYrkLblCAF3jwVQBpGUhnsjAtG9KwUSx50DAAYcJJpZHN5eFkUnAyKZiOhK9caOSHtoh0dclCixQiWpBBhAyc9DhEyKBQiBBFKURhBl7ZglA5ZJ12aBFCi7BSKVFEldxpLaFhQMNArrUV0rKQyachrBCdhQPwRReMjIeycQT7Dr0qIoTtGsE0jSAHBCZ0JKAigUjHN21yxwZkY+a9zJCwbRtz5syBECKOOpNAaCb0sB4/fjwA1HgfJ4sXAEChUHhDs7fPnBz1wpImep111llob29/IvnepOhqdq5wPp/vmTlzZtwOKrlM+bPEli1bAAze5syyLD1v3rwa72eKQAIVcSWEwD333IONGzf+HOhzDRltlQJd17WS3+36qqL17x+uCPuLL754x9GjR2vSuJK+yy0tLViwYMHCZm83KXpffPHFHx05cgRA3wRLGg0DKvae55577gX160gep9F2/l+LsIAe4ZjSRNkrC9u2kUql0NnZiTAMMX78+LhiFpUUDsMQruuiWCxCSgnbtmMRQZFc13Xjm0qjhSBOBppxnKzARYUTSqUBEqABlMvlmuIGY8eOhWVZ6OrqAs1ul5AFAVFQWmU0dGXlWhuQgnvxpxkhBCZMmLCV/Hp935epVCpIDrs2Axo+bm1tjYup0ChHckJT1VZrbDO3zZw8yUlm5M0rpcT06dNrBAkViyGanT8bBIFYuHBhTcSSHEHoZ6UUDh48GLd7sMydWzGfoftespAGTVDs7u7GX/3VX137q1/9Kh7KH21WZqlUKhis+Pd9Xw5XlPX555//KFnnJUcRDMNAJpNBe3s7WlpauoZj28S2bduuT3pO03wkoDL3qL29HWPHjt1D7+/veI228/9ahAX06cYIASOERmy/IaClMmB3VBYzzDi5MPALMMIQrY4DO7KAHgspP49ACShUZxoLC4CJdGoMAhcQkQ0oC1I7EHAgRQqmaUFrIIwAYVgQwhvSIiMTUqUglQ2pbIjIqizagNAGDDgIPcBGBmaUgggsGMqBoRw4IgslVXWJoGTfsKyMJGQkYUUWMkYGVmTDimxEBQXpCrTZLUApgjYUNMLJCionhICAqISOZH2kWSqOPp96fN/HvHnzVlCEmIZb+ysQMRRofel0pT4KFcIwDAO+78cpS1prFAqFac3cNjM0TNOMi6YQCxYsqHk93JZuUkrMmjVL03Vj23Y8ARvom/C3Z8+eY+zSBmLFihXPSilRLpcrE7yLxTganbRZdF0XX/ziF/HhD39YP/roozX7O5hobX0586Qoqxdo/ZU9byYDib9mf/+Bvgjwk08+iVQqFV9TyehvqVSKc+ubSX11yEcffTTOp6fJjGTX6HkeLr/88prPs1genbCAZhhm2Kjm/nnsesEcj2SuemJC6Cltg2EYeuzYsZuoDcmSz9RGyl8tl8v5RtZ97rnnXjJr1iw4jgPXdTF27Fj4vl+TXlQtrY4oirBhwwZ8/vOfl9ddd53+2te+pp977rmnSBy6rmvVi+lisZj1PM9MljOvj2AnJ18C/eeVnwl0dXW1v/rqqygUCrBtu8b5hCZuXnjhhZ9r9naT1SG7urraDxw4ANd141HX6nvg+z5M08RFF110W7PbwJx62MbudFPNMtBANfUgUtCANAwlqu7KIhLQQkNoCRkJSK0hkILWGr5JM3yr/qlaomIrV9c3oluuplNeHULE0IKyQkcAQui6eEZEfbN4u7UvabpFPJAf295FgDbjgiyUhCHr2k3rCKvRe1qFBiAEKpVcIgjEEzsqM6QFVyA8pTiOA9u2h1zxjjkzoVSIpGjVWmPKlClPDPDRppB09pgyZcqtAJ6kdI36CahRFMH3ffT09CzL5/O/Hez60+m0d/3110f/+I//KJVSKJfL0FqjpaUF5XI5zru2LCtOd6t+Fj//+c9x//33rxg7dqyeP38+VqxYoS+44ILzJ0yY8AJtI5vNFuu3S/Zx5HhD+2gYhqZ0mNFUqGWwvPzyy49S/nMy55hSZsaMGYO5c+f+9XC34fDhwzXXtO/7capla2srZs+e/fnhbANzamABzTDMsFEtFHHKOi1JhwNmdJAsXkJ56pMnT/7zU7Ht5LU5fvz4NRR1pkmo1Da6pqIoQnd39y1nnXXWoAQ0CdYrr7zS/M1vfhNt2rQJ3d3dSKVSOHz4MPL5fJwbrZSKXSKSc1h6e3tRKBTQ0dGBRx99VADYPHXqVMyePRvLly/X8+fPfyv5CSep984mIU3C2fd9ORypFKeTdevWzadcepqgSRM4oyjCBRdcAAAolUrpTCZTHo42PP300/PDMITjOAjDELZtw3Ur9RYsy8K557KL5pkCC+jTjqB/g9rfViKlqhpUVkYlagGjWnhAZapFQuojs5Ued31uTiJuW/2/+rnIHmLzKzcGQVGT6uq1oMh2ZctRHEmuWu3FkenqzPQaiRXFn6PIthLU7r49UwA0JCLIXgFRiCBLlSoqUqPO/pkjz6eHUy1mWTyPLpJlrZPWdK2trVtOZTuUUsKyLG1ZVhy1JEFP7aO85d7e3ksbWbcQIjIMQ3/gAx+47hOf+MTPoyhCb28vxo0bh2KxGK/fNM047SAMwzi1I51O13gYK6Xw6quv4uDBg3j00UeFEOLnU6ZMwcUXX4xLL7307nPOOeddyVLnVBbcMAxdLBazpml6juOEZ5J4ps7BunXraipJUqVHOnZXXnllCQBM02xKKXjg2BLiTz/9dJy6Qde1bduxu8tll11WMyrAjF44B5phmDOSZlWqY4aX+vNkGMYxlflOFalUKha01K5k8ZNqQZVBT0ItFotZEqoTJ06875Of/OQ9Ukpks1mUy2VYlhW7xbiui3K5HFvoUVVGEl4UxXSciu19oVCIheHevXvxk5/8BB/96EdvuvXWW93vf//7+siRIzPDMBSO44RKKREEgchms0XHccJisZg9k2zSDMPQhw4dWvDqq68iCAL4vh9HgCmVI5VKYeHChXOUUqKZnYekeN63b99le/bsic8pTR6tVP2tpAUtWbJknmEYerhs/JhTBwvo044ZAmYYV8wjA2RUo88AQiAVWB4Cy4NvVhbPChAaAfqitZVFQkFCAdKrWaQIIBEBgtLeKu+PDHdIC3QK0Clona4uTnWxoLUFhcoSicqihNG3wIGhbBjKhtRmdanEjyOpEEkFZQRQRmVfQyOAb/rwTR+e6cMzI1QdnguVoyc9dtpgmNFFfZpEcuLVqYKigZlMJhY+AGomEdLiuq5x/DXVks1miyRUbduOzj///BvuuOOO26ggFDlFVOcKxOkj5I/t+35ceIOEM1W2a2lpiY8dvV9KiQMHDuA73/kO/viP//iVr3zlK9GuXbtuMgxDk9VjdXulMy0Cunbt2s10rJLVHunYzJkzB2PGjNlH+z0cTiTPPvvsY3T+gJoqmgjDEHPnzsX48eO3Jf/GjF5YQDMMc8ZAQoxTOUYfJFpPh4AmHMfp14EjuVCEeLCQ/zlFHGfPnv35u+++W77+9a+vqR6bTBUhUWzbdk1VWZpsKISA67rxBMSk3z+13zRN3H///bj11lu//81vflP7vp+jNpmmqZvtxX66WbNmTdzRoHLwdC2ZpnmMNWIznEioc0RifMOGDTBNM/ahByqdMuooUQlxShka6vaZ08sZ9QUanUQCiIQNhDYQajOCNiMAkTAqnhnaieAiygCRg6xXWaSm/OC+fOHKK6OyaKdusSrOGOTSQUu18t/JLkr6UNJHVF0EQgiEkDqC1BHMCDAjQFYXoRMLwvhzkQirS9UvQxuANmJfaRkZkJEBU0mYSsJSEpaKYIpOSISTBQAJxxWQGhFEJSAdAQjMylJPaFYWZjg51VEWKqKSrCCXFNNVEcTqeoRQb193OqnmpcaRy2Zeu7ZtR8mhfsuy9F/+5V+Kr3/9659bsWJFXEim2o6aqoyUCw3UinnqKNL7KIeaxDd5TAdBgJ///Oe4+eabu3fv3n0DcKzN3ZmQTrBu3ToAleJd1Bmh4xKGIVatWvUg0Cd6m5HCQseQ7jWPP/54LJ7pPJEfvWEYWL58+d2c/3zmwAKaYRiGOW0kHTgAxJP4TjWGYWjKM6bIbtJmjxZyzWgGc+fO/et//Md/FP/f//f/3fjWt74V2WwWQgg4jhMLYaqMSMKeJhKSiE6n0xBCxPZ49D6KviZzrP/sz/7sR08++eR+0zR1UsTVF4YZLYKaRPCmTZt+nKw2Sj9Th3rs2LGYNm3au4A+0dtMEWsYhn7hhRe+n7x260cyWltbMXny5L9m8XzmwAKaYRiGOe1QrmqjKRLNpFgs1qRLJIu8ABUhnUqlmjrPwvd9efbZZ//4fe97n/jxj38sv/zlL997zTXXYPbs2bH9GpWCJgFv23ZcwdHzvDj6TNFP0zTR2dmJYrEI27bh+36c0vDXf/3Xk3bt2nVTvUhOvh4t+bkkRh9//PHrk52cZEQ/DEPMnz8fY8aM2Uefa+YESlrXo48+ehOAuLNDEzwpEj5nzpya8t3M6IeHsBmGYZjTQtIDGugrqOK6rnU6nDjK5TIMw4gn7iXbSW3MZrNNFUG2bUc0rG9Zlj733HPfunDhQg0APT09bZs3b97yxBNPTFq/fj06OjpiIU1imtpmmiY8z4tF8/jx4+PiL1RGuro9fOITn/j+t771rV/k8/ke2nZ9ikkz93G4ee6552o8n+vP3cUXXwygz3Ku2dFnoJJCUt/ZUkrFbiCXXHIJgD7BzZHo0Q8LaIZhGOa0UV+FUGuNrq6uRZMmTXrmVLbD8zyzvgIhCVXKZTVNE/l8fnWztknFTI6XTtHS0tJ18cUXTyYBePDgwUXr169f/8QTT2Dz5s04evQoHMdBEATwPA+pVAqO48SR6TAM0draiu7ubriuG09APHLkCL71rW91/5//83+OycclQT1acnWPHDky89VXX43TW5LRX8MwYFkWli5delEQBMM2ce/o0aNT9uzZE28XQDyRkzqJK1euXAyAOjsj/rgyA8MpHAzDMMxpI5nrC4Cs2L58qttx6NCh36PJeskqhEBfKWgpJVpbW/+jWdskP+JSqZRO2qqRQ4ZSSiTTDSZOnLjhDW94g/jMZz4jfvKTn4ivf/3rd1588cXI5XLIZrMoFosoFAqwbRtRFCEMwzh1I5vNxqJSCIH7778fu3btuinZHs/zTNrX0SCeAWDDhg0vkbVfMn2DOj0TJ07EpEmTnqFzGYahaHaO98aNG7f5vl8T+abcdd/3MXnyZLS3t29QSsVFV4bDRo85tbCAZhiGYU4byWqEJFr37du36lS348CBA3ckXROobbRQee2Wlpanm7VNz/NMAMhkMuVkdJSEtWEYx6QbJAX1/PnzP3D77beLH/7wh/YHPvABTJ8+HblcDul0Gr7vo7W1FWEYQmsNz/PgOA5KpVK8jw8++OD3gb78Z8Mw1GhL33jqqadMuoZogqeUMhazS5cuBdAX2R8Ox5cnn3wyQ9cvOW4AiCc0rly5EkBtp2QkOM8wQ4MFNMMwDHNaSKZIAH2T144ePXrK23L06NF5JKCTkURqJ6UDpNPp3mZt03GcGssRpdSA0dH+IsOGYYS///u/L/7jP/5D/uEf/iG6urqQy+XQ29sbW9tJKREEAdLpdDw58eGHHwbQd9xHW2qBUkq88MIL8eTTpK0f5YVfeOGFJXq/67oW5Xs3ayKh7/ty06ZNAGodZMiC0DRNrFix4kC9fd5oO9bMsbCAZhiGGYD+hltpqPtESCmLydfDbQ/muq4FVJwAlOozi7As6xh/WiGEN5xtGQyUM0oT3EhQb9mypeZ9yUIkQHNdFIDK+d22bZsIwxCWZcXHjjyYqajJWWedFQuf4SiFXT+Zb7CQ4LcsS99yyy3y9ttv913XjfOjqWMA9O2TlBJHjhzBK6+88r76qPNIKrJyolSHnTt3fmTfvoq5BhWTsSwr3j8pJZYtWzaW3p+cmHqyKSrJ8x6Goejo6HjDvn374u2RmCcbQSklli5detZoyitnBseI+ZIwDMOMVPobbq2PUvaHUmps8jWtZzjEF1CJRNLP9DCniBz9bqRVaqRIXbJwyK5du2o6G/WFSJolQug8WJalN27cGEfDKe0h6RKitcbUqVPjz44kIZS0nbMsSy9YsGDZ29/+9viY1heISe7ngQMHPlO/PinliNm3pLina4L+f/755++ga5qivXQNCSEwb948mKbpN7M99RM+n3rqqQdo+wBqyohLKXHeeecNi/c0c/phAc0wDDMAQxDQ+eRreoAOl88uiY3kBDgqLpF8XR3qzh9/TaeGZH5xspT1q6++ioMHD15d//5mdzzofPT29rbs2LEjTm2g6CG1DahUuDv//PMBjLxCI/VR6/b29g3XXXfdxZlMpqZqYX/X8c6dOyfUH9eRml5A7aL/H3vssZpiJRSFpmv+4osvHnZLvkceeSTOeQZqBbRSCpdeeml8nQ1Xx5k5PbCAZhiGGYD+IkeDEdBaa7u/3zc7Alz/YK4XpPRQJ2eGqoCe0NRGDIGkcJVSwvd9PPfcc78Bhj+dQCklnnnmmUMUQYyiCI7j1HRCKGJ73nnnvQMYuQJTKSXoeE2ePPmpGTNmxMcW6DvOtG+2bWP//v011/doEXnd3d3jXnrppfh7mMylJ0G7dOnS2/r7bLM6QMViMbt9+/Ya5w+Cfr7wwgvf34xtMSMPFtAMwzANopQSlLd7IoIgmAcc+8AezqFcahsN1yfTNkg8VSeUzR2uNgwWag9F6yitIJ1O47e//S2ASvpGwiWi6cfNMAz98MMP20k/asobBhBXJWxtbcWUKVP+s9nbHwr1YtcwDE0OHgAwf/582LYd708yUko5uz09Paewxc1jy5Ytz7uuG0ebqWw32ce1tbXh7LPP/mIzt1l/vDdv3ryJ0mSo05rsoIwfPx5Tp079Jr2fUzjOLFhAMwzDnATZbHbA9/T09PwBEFclG7bIXvLBbBiGprYlJxICiMWzlBKFQuGq4WrPYKlP3yAB7TgONm7cGPsU10d8m3kse3p62l544QX4vh9HZV3XrRmGF0Lg/PPPR1KcjoRI7UCCbOLEiTU53Elo35LOEaOFMAzFc889NzXZUUzmIUspsXDhwrjKY/3nT3YEof54r169eoZlWXH5+WRbkm04mW0xIx8W0AzDMA1iGIZubW0d8H2HDx+eTe8/ldGnfD5fM7SdjDwbhgGlFA4fPjz/VLXneNDkNqVUbLdGgs/3fdx3333fH06hqpQS//M//3O0q6urRswnc5/pmF111VUufS4Mw1HhpqCUqnGESApMmmznOE7NZ0bafvV3/oMgsJ9//nkAqBHPyU7PFVdc4QPDtz++78tnn322ZvIgXbv0/6pVq/z+2j8SOl/M0GEBzTAMcxIMJgLd3d19ClrSBz2YM5lMHGmur44mhEAQBKfFa7kect8IgiDOIaUc6Gw2iwcffBBHjhxZOJzb/9GPfoQwDJFKpaC1RrlcrrFCI5G/ZMmSyfS5IAgGzt85RZzI5q1QKMQCOlnxkfLhhRBIp9OnsrkNkxTAlMpTKpWmvPTSSzVlsymNg0YxFi9ePLOZ7UiKXt/3ZaFQOGv//v3x8U1+16g9ixcvntnfhOGR1klhTg7zdDfgtY5CkKr8bwUAYAfV75Uh4+6NJ5ES8ABouJaGVBpOYFX8Js3RN/xWC12C1cgIaH+qx0HUjn7Vj4WFeiwimPsFNCIEKQ3DFZBABANaKhiy5gBphDXXPIcBmBMRhqFIDvcGQSAsy9JBEIhp06YhDENkMhmUy2UopZDL5VAsFuNJaNu3bwdQeeDWD+U24gmbfC+1ob/30XvOOuus2IqNHupJJw4hRNw2WmdVLJ7yB3sQBMhms4iiCOVyGblcDlJKuK4LpRS+9a1vrf/Upz4lPM8zHccJ+zuWJ6K3t7cln8/3AH3nk9b13e9+N+ru7q5xqUhORqO87De+8Y1oaWnpovOQTqe9wZ4/El7173Vd10r6Etdfa4PFsix9vM9u3rwZ6XQa5XIZQgjk83n09vaiXC4jlUohiiKcffbZ/W67kfZs2LDhgZ/+9KdvovOYFLOUAmOaJvL5PN73vveJk/VDpvasXbv2FSklLMuKS5XTqIVlWZg7dy7GjBmzr9H1n4hke6WU+sknn9wN1EbAPc9DKpWCEAIzZsxoehuYkQULaIZhmONQLyBIuEopMXny5K3ZbHZ+b28v0ul0zQOUhsefeuopAJWJcK7rWlJKZdt2RAJuoO2T0Eg+vKkNSRFSL0hmzpy5JoqiFel0Oo7S0TC+4zgoFApYv349isViNpvNFvsT5INt4/GEVrlcdtLp9AmLtXieh5aWFvi+jzAM0dbWhlKpFJehdl0Xjz32GK677rofn3/++TeQ6Ozu7h7X2tp6pL9tK6UEdRaqojGeJZcUz9u3b//oL3/5S0RRhHw+j2KxiCAIkEql4jxoKg19ySWXvApURFR/5+R4dHR0LGpvb9+QPJ50HaRSqSB53kzT1GEYCqWUYRiGomp5J9oOdSbCMDS11mHyPB44cGDptm3bYlHpeR7K5TJM04TjOPA8D1EUYdasWVv7O3+DFc9KKbFz5843rV27Nh5NqH4eQJ+NomVZOPvss+F5nmkYhjrROuupP8+PP/54LNApD1pKCcdxUCwWsXBhcwYtksc/2Yaq/3PsvpGsfGjbNrq7u7Fs2bKmtIEZuXAKx2lGwnIlLLdyKiQAo7IcezurLNqEEiaUjKDkGTA3QfiVBVFl0bK6WIC2EGmnZkF10ags1c/lqguAyICEhoA6cXhZqsrCMAOTdNGg/NeZM2deQw9OilpStC05TP7oo4+WgUoVtEbEM9AX9VJKCc/zzGQ76oa2Y3sFpZSYNWvWmygVwvcrdSSoGiEJqs7OTmzbtu1B+lx9KsBg25gUNsn2DSSeq5+tceBQSsE0zTiqL6VEGIb4h3/4h+uPHj06hT7X2tp6JLlt3/dlMtJrWZY2TbNfkes4Tnj48OE5X/ziF+/Yv38/qp+H1jqOynqeByEEyuUylixZggsvvHA6fb4RD++vf/3r6z/0oQ/pJ554oouOZ/I6qG+faZracZyQ9msgkW7bdhQEgUilUgGJZzqP//3f/72ut7c3PrY0KkKTJaWUSKVSmDNnzipa38nk5larJ9ZUOKSUEYo803kUQiC5f4Ml+X7P88znn38+dkuh71nSiWPlypUPnmh9jexbf20IgkCsX78+zn+mVKRk/v4VV1xxZzPawIxcWEAzDMM0AAmocePG7cjlcshms3FeMUUuyXu5VCrhu9/9bqq7u3scCZvBCtMkhmHoeuGhlBIkeKTs6wxqrdHS0tI1adKk+AGfFPnUPtu28ZWvfGWV53lmdR0AKq4UwIlzawn6LHESwghkRWbbdiz2k0U/qOT0Jz/5yb1CCE3tS2LbdpSMFAZBIEhUJ0VhqVRKA8BnP/vZl1566SW0tLTAtm2USqX4mJAzBeU//+Ef/uHOZMpII/uYy+Wwe/dufO5zn2v90Ic+pFevXn2E/lZ/HVCbB7tuoNJxqBfOlmXpp59+ets999wDx3FqIrT1KSrnnntu3BkBajtsg90+0Oc+kUxn8H0fQRDEAp7eR1DZ+YFItsXzPHPXrl3/EARBv+4hQRBg7NixmDdv3lsGs+5Gt08/b9269Wd03RLUeXBdFxMmTMCcOXP+vFltYEYmLKBPMwJSCyTLplYj0UYlBq0AIYCgEpEV0ALQAlBGAGUEx1nr6EFC9S0aiAQQCRORkIhgQR+zmNAw40i1QASJKC8Q5SUip5/QPQBAIxIakaDIswDnPzODJymaksPkl156aRytNAzjmIiqbds4ePAgPvKRjxx+4YUXfgP0CYfBFnMoFovxbMX6CDQJnmSbaOh/2bJlMAwjzsn0PA+WZcUT5DzPQ0dHB975zncG69at20Lramlp6UoKsxNxMp2BJBRBFELAsqzYs5hSYShK6routm7diptvvjnQWhv9rYvEsmma2rIsnRTVifdYH/rQh/TWrVshhIg7E+REUS6XYRhGHK2/7LLLsHz58pOejEbnv1gs4qWXXsLtt98+9v3vf7++9957teu6Vrlcji0wqM30OhlVP97+Usltz/NMOl8PPvig/vSnPz2biuZYlhVPzIyiKE4xCsMQb3zjG/td92Cj7NTeZBSYXtNxpI4QTcYkkvnfJyJ5Dh3HCZ988snbaHv0fTNNE4ZhwPM8LFy4cMjXZZIgCOJOIp2PJ5544lrDMOKOMv1Mx/nCCy/kiYKvATgHmmEYZhD0l2/7+te//u4f/OAHN5mmCdM04xxaEoYkpHfv3o2PfexjV0+dOlUvXboUZ511FiZNmtSdyWS2H297AJBKpbYUCoVL586du6Ktra3jRNHPZGqI1hpXXHHFEz/72c9WkdCgnN6kpZnrunBdF5/85CfnT5o0Sc+bNw9z585Fe3u7G0WR2drauuFE7fM8b8qsWbPeSHm+jUKV8chL1/d9tLW1YcGCBXjsscdgWRZ838eYMWPgui66u7tx0003Hb7pppvw1re+NWVZlj9QuoNhGLpYLGbXrFnTfeeddxqHDh1CJpOJI7E02ZJyarXWCIIA+Xwef/qnf/plWg/lwzYyAc51XWSz2bhjEAQBduzYgW984xv42te+5r/uda/DsmXLwosuumhcPp/vCYJARFFkOI4TDjRRktqQzOn+2te+dseLL76IYrEI27bjjhKlxhiGEaf1zJw5E5dffnmmfv+AwUfZaUIrHUOivngPgGR6g5RS6sFsg75zyYmzTz/9dNzBovNHKSMAsHLlyprPDmY/ToRp9s3Upw7Lc889hyAIapxNKNdbSolLLrnkhJN9mTMDFtAjjWq8oc8twlQGtDJDC6FUlQCr1tDSqwyXqUGNgo1cNEUkBOIBES2hhQBEIp4sVPVdYc1rM6JDJnsFoowACtCRGHhwRfKNjWmI/h7Gc+bM+d/nn3/+Tbt27YrzLymamaz01t7ejs7OThw4cAD33nsv5YS2mqZ54Ym2GYbhhZZl4ZZbbjl43XXXZTKZTPl4702mcZimqefPn3/1rFmz/JdffjmOjicj45QTSxPMDh8+jIMHD+JXv/oVstlsqpore8L22baNd77znev/4A/+IDWYnOd6SNBR6ovv+3AcBzfffPPntmzZcltvb29sLZfJZHDkyBHkcjl897vfxS9+8Qv3hhtuwKxZsx6cO3futf1FNHfv3n3Dhg0bfnTfffdhx44d8DwPhmGgXC7Hx4CELU0Ac10X+Xwe1157LebNm/exRvcpCRVmofSeTCaDQqEQT5J84IEH8OCDD5rZbLZ7+vTpWLx4MZYsWbJ15syZ17S0tOw8njNKGIbC9/3Uq6++evu6detuW7NmDV555RUUCoU4EkrR2VKpBHKsoM5Ba2srbrjhBiSvp0Y7B0DfyIdlWXAcB2EYIooiBEFQ4z1OYrqaJjPoyTv0naPtdHR0LNq9e3ec75zcjtYamUwGS5YseTMd+2aQ/N6bpqk7OjoW7d+/H0qpuLIjpa6EYYh8Po+FCxderrUWON6QKHNGwAKaYRjmBJxIVNi2Hb35zW/GXXfdFZfz9TwvLuhAk7dKpRJoohXl+lIqxYmwLCs5se644rn63po2plKp4E1vehP+4z/+I7Yto7LDJHSAihNGGIaxmwAJHorsnYju7m6YphlPGGzUYo78nymfta2tDYcPH8bcuXP/+qqrrrrtvvvui99XLBaRyWRiwXTw4EF89atfhWVZb8pkMn5rayvGjh0Ly7LQ1dWFQ4cOgQQ47WdLS0ucnyuEQKFQQC6Xi/9OqQezZ8/Gu9/9bpGMYpJoMwxDD3Y/qcNCkeB6oU7iulQq4eWXX8bLL7+MH/zgB/MBvGLbNsaNG4d8Po98Ph8fp1KphKNHj6Krqys+FpQ+Qeku9D+lUViWhXK5jCiKkMvlMG/ePLzlLW85aTu5esIwjJ1nKCJLpe7pWqKOSqMk3Vw2bdr0bKlUguM48H0/7qQmHFcwderUB4Hmei1TG5RSYtu2bQ8Xi8W4o5KMQgsh0NbWhilTpjzerG0zIxcW0KedSn6VRjWSLKAgQgDuHAAwkHol0hEspGCZJorlHqRb0ugpHaoMYY12Hwld2e+ompSsIQERQZP/s6gOP5cLEEKgtSUD13VRKhXQls3DgAEB2SsgICFLgACE1Ii0CUMcc3QER55PKUmBWD8c26wh1iQ0FJ/0hqUoK+WDViNDgx5iHehBfMMNN4iHH35Yb9q0CdlsFmEYxpPQaEiX0iiq2wWAWKwOsO04HeRkuPbaa42HHnpIvfzyy7HHcqlUqslVJWFIIoBySWny2Ykg1wqgcfEM1Jbypu2SoP3Qhz4ktm3bpl9++WX09vZi3LhxKBaLsbUcdQKUUiiVSiiVSti7d2/NBMTkhLl0Oh1PaqPf09C/67poa2tDb28vJk2ahE9+8pNzgePnvg92P03TRLlcrqn25/t+nJdOx572Jyk8tdbo6OhAR0dHzT7R3+gztm3HHS0S6NTpopxc13WRyWRQLBbR1taG22+/fTxw7LU9VNFJopKENF3/Sqm481Nt96C/+ySelVJizZo1Bn0nbNuG53nxfuVyOaxatQqlUik9UGezUdLptEdtfvjhh8dS5zeZtkER6UsuueSkvgvM6IMnEY4C6IHc09ODdDqNQqEQD8ed6dBM52w2C8Mw0N3dHVcNi4fvoCEgCgAQ6eo9Sx4rnpnmk5x9f7yFnBrogUlCoJnimSbX0ZBxOp2OxZlSKk4PSM6cb1Z+YhAE4m//9m8vbm9vjwUC+S8nHQgIahcJpxPhum6co5uEbO0G+rxt29Htt99+kRACqVQKvb29sXCjiDjQl25Svwx0bsm/mbaVbN+AOzcIPv3pT5+dyWQwZswYdHd3x1FyskdLpVJxZJaOFV1fQRDEUV7y6U4KTs/z4hQHx3FQLpcxbtw4fOYzn/nY+PHjtzWj/bZtxx0REvzJ4wf0OY4kC97QQiKYPp+8puic+r6P3t7eOJoPII74UkeIIrYTJ07EnXfeOd5xnJ7jNvokIHcX+o5RZyyTycRtpVQd2ufBkHSC8X3ffvHFF+POKZ1L8rb2fR8XXXTRzmaLZ7q30P1q69at8Dwv3m865pSOtGzZsq0snl8bsIA+7fjtlaWKjACpDSDKA1EeWipbWCqnW9HeMhV+j4QdZZEyHSA8AwS0rnhbx4iwugSACNDWlkfoleGWyrC1hCPSyBs55M1WGKGNrNUKCQkBoyRgFnQkFCIICFSqEVapukwzTaa+glv9ks/na2bEB0EQR54GY5M2EORoQeskQUR5mPSAsywr7oRJKbVSSiQdEIZCGIb25MmTn/rSl750YzabjaujARUBlSwvTBFQAIMS0Ol0OhZgSUs2srUb6PNKKTFp0qRnfvjDH57V1tZWY2uWHHYmQZNsJ6U5nGghC79qAZB+PaqHwtixY/d84QtfeH9bWxvGjBkTux1QRzqZv9zS0hKnLpBwzOfzKJfL6O3tjfN0y+VynNJCebOO4yCTyeBzn/vcbbNmzfoyMHiXlBPR1dUVC0jLspBOp5HL5eIJfrQkBTXQ18miDk4yFYOcHygVhTqMFNWma54KwpArzIQJE/DVr351cWtr65HBOmAMhOd5ZjUNBKZpxhMm6dru6uoCULHzIw/y6v7owXz/kyMvHR0d1+/atSseJSGUUrHTyKJFi+Y3Y7+SJMX+3r17X7dnz55jisQkC7ksbFYVF2bEwwJ6hKPDEDAMjBs3LrbLchwnLnN7pkNiKPnQpopaWmtMmTKlJCEL9P74hnsG9C3OBHp6elAqldJJj9rqBKhB2aQNBAkBisaS8KBhfhIgNLxddXxwqRzzULcPVIZ3Xde1zj777B/ffffdqUsvvRQtLS1xoQeKmDqOEwticsAYSKBS9LkqijQJD6XUoDyDScjm8/n9X/va186+5pprYmsxElokxMjmjIReJpMZaPVxCfNk0ZJmRZ+Jc8455xv/8i//clEul0O5XIZlWRg3bhwcx4HjOHHBk0KhgCAIYqcR2i9KK6AIdTqdjiOyNKlv7NixuOuuu+bOnj3789SxasYIycSJE5FOp+MOle/7OHjwIDo7O2vEJuXSAqgR1RRxpqhz/ULuL8kIcNLvmzoY11xzDX7wgx+I9vb2Dc3qOAIVWznDMLRt25q+Y3S9K6XilCaaA1AdERJKqYbTp5599tnvJ0uE0/crnU4DAGbMmDGo4j2NkmzDE0888RshRDyikcx/jqII5557LhzHCQczOsSMflhAjxA0YGnAgpC66kjRC8heEdiTEUrj4oWvR6kjQntmBmQ5DeE6yFjjTnezh0wkI0RUUTEReRYIIRAiUgpZJwcbKcBPIyMmwA4mQRTHogVzMGfGuX8E2B0RjAJghUJXqjhWvJhwTIROV52mEaGyMCfNYIZhU6kUMplM2bIsTYLPNE3drCFO13WtMAwFRWNJOFFUCkDNsHa1A5amYhtD3T55NJOQT6fT3qc+9Slx5513XnzjjTeipaUltmLr7e1FqVSK20YR0BMtSasswrIsXRUtDR3DsWPH7vnIRz4i/vVf//UdN998MyZNmhT/LellG0VRPFFtIFKp1DG/Gw4hPWnSpGe+/e1vW29729vgeR66urpQLpdRLBbhOA7y+XwcsaWUBcpJpY4L5a1S1UFK47j55pvxrW99y6K0DXIzaUYE+r3vfa+44447bvvzP/9zzJgxA1JKTJo0CRMmTEBPTw88z4PneTWpOskUH8dx4uhqslAJTUSkFCUSliSmqcN23nnn4atf/erdH/zgB+NnPYlMKiozFIIgEPRdIkGbjBBThJ+i6zQJ0zAMXSgUWgazDbpvPPbYY7FzDHUw6FiUy2VcddVVQ92dAXn44Yfj9CygL/UJqKRbXXHFFah6kZ/50S2GJxGOeCx0AMCy85eFL+xab255cSuKQRFG3miaTc9IJpPJAGElcmMLsxLNKPoYN24cLl52MSZPnnwIqEYa6RGhYUCAb2DDzGCuv2pkU9q2Hdm2HYVhKKripSljBMmhaM/zTCq8kYg2xw9boOLyAADNakM2my0mX1fFhD158uSnbr31VnHrrbdi7969r3vhhRd+vW3bNrF79250dHSgu7s7jkqeCEqDASqdBdrfRo8jRVPDMBTTp0+/++abb777pptuEjt37vyrV1999TMvvviivXPnTnR0dKBQKMDzPERRhHL5xOmklFdMVCPjdjqd9prpghAEgXAcJ/zIRz4irrzyyt/ed999Vz/00EPIZrOx+KQIZ6lUAoA4PzbZYaHUntbWVkybNg1/8Rd/ceO4ceP+x3GcsFQqpR3HcROdsaa0f+bMmV+YPXv259/+9rdj165dN61Zs+b769atw44dO1AoFOKOHQllihonc5qT3zU65omRiXiSYqlUQi6Xw8qVK3H55ZeXLr/88rgIT9Jxo1gsZuuv3ZOBRpSAyneLUlYoQkyTF2m0VCkVO1rkcrlB5WHbth35vi+3bNkSdxiSE3TJXeTSSy99c3/72izK5bKzY8eOeMSDhHSyTRdeeOE7khUxmz1JmhlZiNfCRLQRjfbSAOCKyg0wFcGFhNYotwGAKKeBCJnD2d1/u8vf8b4f/eRH6CkfwRF3OwKUoKymFVw6TVRUrxZh1du5NqgWeBqWzsCWadhohXIFUqIVy5cvxx9ccv22yZi63IbTHekIBuVSa/SVGZRU0TEStDUBAJGs+XuzuP7663VXV1ccMQJqnQCAini78cYbceutt57xPSB6kPX29rbk8/me5O+atQ2KUNm2HSmlRFU497v+pCVWsvDIyXL06NEpY8aM2ed5nmmapkruFz1Ak3nLJ7ONZJuBwbuHEIVCoeVEYkUpJarpAEM6J/XuB/05EXieZ/7BH/xBUG/9Rd8PrTVyuRx+9rOfHfPdqO9A7Nix4/Zf/epXn96wYQO2b98eVy0kuzhKlUkWtJk6dSouvfRSXH311R+jXOd6wjAU1SjqsD8cX3jhhe9v3779pvXr1+Pll1/GwYMH42qIVFYcqK0MWJ+3HgQBxowZgyVLluCSSy4J58+ff9mECRPWJM9n8lzQ9ZA8nidL8tqsXx99z33flxR1pu9Eo9+9Z555ZsNf/uVfLqTJ8ySgKaVv6tSpuPvuu2tKbjf7/K1du3bHpz71qRnUIScPceowTJs2Dd/4xjdSJ2vpyIw+OAI90pHwIOFFiMZNsac8854/ec+CddufTD+05gh63QhFVRh4HaMYx3FgaQcyMiAigTlz5uCKlW/AgvELthlwfqvRJ1JjKUy3Ue4bnnYMw9Ce55kknoejOlfyIVV9UAPov4pZ0hKrGeV+x4wZsw+o5ILWpywMVCFvsCTFczJ3dDARrjAMxUCRvqG2j8RQUjwrpUQzxAMJoaQ4o+3NmTPn7+fMmfP3ANDV1dW+c+fOn7z66qururu7YxGdzWaRTqcxderUnXPmzLl87Nixe+q3QcexXC47pmn6p7J63IIFC96xYMGCd7zlLW+Jf3fw4MFF+/fv/1p3d/dFXV1dqYptZyn2qc5ms8jn88hkMnratGlfmTx58t+3tLR0AbXfr6R7BHUuDcPQuVyux/M8sxkTCenaDMNQ1K+PrispZZwfTxNOG/nu+b4v161bt9C27WMiviRk58+vzB2kfWy2eC6VSumnn356hm3bsXc4ObxQhc958+bVfFdZPJ/5sIA+3QinDABxJmE1MCqQ7gIAVKd7tGPGjfSW2bMuwB/Pev+pauGoIA4vHwej3v+Zs/9PGcmH5akUJ/VVzJIMR3TxVEQsk9sYTMT4VAwh9yeGBnssKI8V6BupSUZbaT1Jcdbf9tra2jouuOCCyy644IKG20/HaDgmoJ0MEydO3DBx4sTLTuazyWu9/twnz0kzOo9JTnSdJf92Mt8R27ajxx57DKVSCfl8Pi4ERNdNuVzGG97whp3UeRiOTnomkyk/8cQTsYUq+cyT37ZSCitWrIgF83B4UTMjD5YRDMMwDMOMOMIwFHv37n1dT09PXDiFJoeSjeGYMWMwY8aM6xJlxZsmnmlU6dVXX31Tb29vTfEUckGhYi7nn3/+Evoci+fXBiygGYZhGIYZcZimqZ999tnfFIvFuBQ9gHhysBAC06ZNw8SJEzcMx/ZpNOS55557oFQq1RS9Iau++jZQ6kwzXFyYkQ0LaIZhGIZhRiRr166NxXLSzk9KCdu2sWjRIgDHVC1sirah9JOnnnoKQJ+gJrtA3/fhOA6WL19+zGfYgePMhwU0wzAMwzAjDt/35caNG2PPbvIpp6JiALBixYongFqrPyFE08Sr53nmxo0bY29xyr8OwzBuz8UXX/xlqooKcPT5tQILaIZhGIZhRhzbtm37XmdnJxzHiQVr0gM6lUph3rx5vweAUiriiqfNasOLL774i87OzrgwUxLLsmDbNmbMmPHx5ERXjj6/NmABzTAMwzDMiGP16tU3UaU/QkoZp1AsXLgwdk8xDEMnK3Y2qxLmU0899SZy2qDKg8kiTRdccEGNqwlFn5td0p4ZebCAZhiGYRhmxPHcc8/Bsqy4RDhVYCQXDso9JtGajDw3y1aS0jeo4iHlPgshEAQBVq1aVZOy0Sz/d2bkwz7QDMMwDMOMOD760Y9++UR/nzVr1v9RSg1byWzP88zbbrvt93p7e/9IStltGMZBpdTEKIpaTdPcZdv2K62trQ9xysZrExbQDMMwDMOMOObNm/exE/19OEp2J3EcJ5w4ceJD48ePfzSZppEsU84VB1+7cAoHwzAMwzCjjlORJmGapq6v3EjbTYpnznl+7cECmmEYhmEYZgDCMBTHE8qc8/zag1M4GIZhGIZhBoBznZkkHIFmGIZhGIZhmAZgAc0wDMMwDMMwDcACmmEYhmEYZhBwmW6GYAHNMAzDDAv1E64Mw1BKKQhR+bXWGlJKaF1JLaViGQwzUuE8aIZgAc0wDMMMC+RMEASBUEqJIAhsy7JiAW1ZFkqlEmzbjqvM5XK509pmhmGYwcACmmEYhhlWLMvShmHodDrtBUEQi2UAkFJCysqjKIoi+L4Pz/PYIYphmBEN36QYhmGYYUEpJbTWNcPe1dewLAs9PT1Ip9PwPA+pVApaa0RRhPrCFQzDMCMNFtAMwzDMsFBfXKJQKLTMnj0bhUIBvu9j5syZkFKip6cHpmnCMAzk83lwiWSGYUY6LKAZhmGYYaVYLGaz2Wwxl8v1/Ou//msqnU579LcwDEUyQt3b29vC4plhmJEO50AzDMMww0IQBAIAUqlUCQBc17VIPJdKpTSAOBeayOfzPccrl8wwDDNSYAHNMAzDDAuWZWnXdS1K5RBCxGo5k8mU6T31kwbrUz8YhmFGGiygGaZJVIeiIaVEEAQAAKUUtNYQQsAwDCilYBgGfN8/za1lmFNDKpUK6OfjTQ7kSYMMw4w2WEAzzBCh4WbTNLXnVVI7TdOEEAKpVApRFKFcLsP3fWitYRgGLMs6rW1mGIZhGObkYQHNMEOkfrg5iqI4rzMMQ0gpkc1mkcvlYuEcBAF83+fvH8MwDMOMQtiFg2GGSBiGQgiBKIqwdOlSlMtlaK3jksSUwiGlhO/7SKfTmDNnDthpgGEYhmFGJ6J+BjTDMI2hlBIUhU761yZ/n8TzPFMIEbGAZhiGYZjRCUegGWaI9CeegVp7rjAMRRRFQkqpacLU8QQ2wzAMwzAjG45AM0yTSQrp+iIRDMMwDMOMfngSE8MMkfqiD8kodL14Tr43DEMuFsEwDMMwoxCOQDMMwzAMwzBMA3AEmmEYhmEYhmEagAU0wzAMwzAMwzQAC2iGYRiGYRiGaQAW0AzDMAzDMAzTACygGYZhGIZhGKYBWEAzDMMwDMMwTAOwgGYYhmEYhmGYBmABzTAMwzAMwzANwAKaYRiGYRiGYRqABTTDMAzDMAzDNAALaIZhGIZhGIZpABbQDMMwDMMwDNMALKAZhmEYhmEYpgFYQDMMwzAMwzBMA7CAZhiGYRiGYZgGYAHNMAzDMAzDMA3AApphGIZhGIZhGoAFNMMwDMMwDMM0AAtohmEYhmEYhmkAFtAMwzAMwzAM0wAsoBmGYRiGYRimAVhAMwzDMAzDMEwDsIBmGIZhGIZhmAZgAc0wDMMwDMMwDcACmmEYhmEYhmEagAU0wzAMwzAMwzQAC2iGYRiGYRiGaQAW0AzDMAzDMAzTACygGYZhGIZhGKYBWEAzDMMwDMMwTAOwgGYYhmEYhmGYBmABzTAMwzAMwzANwAKaYRiGYRiGYRqABTTDMAzDMAzDNAALaIZhGIZhGIZpABbQDMMwDMMwDNMALKAZhmEYhmEYpgFYQDMMwzAMwzBMA7CAZhiGYRiGYZgGYAHNMAzDMAzDMA3AApphGIZhGIZhGoAFNMMwDMMwDMM0AAtohmEYhmEYhmkAFtAMwzAMwzAM0wAsoBmGYRiGYRimAVhAMwzDMAzDMEwDsIBmGIZhGIZhmAZgAc0wDMMwDMMwDcACmmEYhmEYhmEagAU0wzAMwzAMwzQAC2iGYRiGYRiGaQAW0AzDMAzDMAzTACygGYZhGIZhGKYBWEAzDMMwDMMwTAOwgGYYhmEYhmGYBmABzTAMwzAMwzANwAKaYRiGYRiGYRqABTTDMAzDMAzDNAALaIZhGIZhGIZpABbQDMMwDMMwDNMALKAZhmEYhmEYpgFYQDMMwzAMwzBMA7CAZhiGYRiGYZgGYAHNMAzDMAzDMA3AApphGIZhGIZhGoAFNMMwDMMwDMM0AAtohmEYhmEYhmkAFtAMwzAMwzAM0wAsoBmGYRiGYRimAVhAMwzDMAzDMEwDsIBmGIZhGIZhmAZgAc0wDMMwDMMwDcACmmEYhmEYhmEa4P8HC1IJgU12Wy4AAAAASUVORK5CYII=;" vertex="1" parent="1">
          <mxGeometry x="396.4" y="458" width="115.2" height="40" as="geometry" />
        </mxCell>
        <mxCell id="0yja2uZejNiCgg6DEzDY-46" value="" style="sketch=0;outlineConnect=0;fontColor=#232F3E;gradientColor=none;fillColor=#ED7100;strokeColor=none;dashed=0;verticalLabelPosition=bottom;verticalAlign=top;align=center;html=1;fontSize=12;fontStyle=0;aspect=fixed;pointerEvents=1;shape=mxgraph.aws4.a1_instance;" vertex="1" parent="1">
          <mxGeometry x="601.75" y="568.25" width="64.75" height="64.75" as="geometry" />
        </mxCell>
        <mxCell id="0yja2uZejNiCgg6DEzDY-51" value="{private EC2}" style="text;html=1;strokeColor=none;fillColor=none;align=center;verticalAlign=middle;whiteSpace=wrap;rounded=0;fontFamily=Verdana;" vertex="1" parent="1">
          <mxGeometry x="524" y="614" width="91" height="30" as="geometry" />
        </mxCell>
        <mxCell id="0yja2uZejNiCgg6DEzDY-54" value="Private subnet" style="points=[[0,0],[0.25,0],[0.5,0],[0.75,0],[1,0],[1,0.25],[1,0.5],[1,0.75],[1,1],[0.75,1],[0.5,1],[0.25,1],[0,1],[0,0.75],[0,0.5],[0,0.25]];outlineConnect=0;gradientColor=none;html=1;whiteSpace=wrap;fontSize=12;fontStyle=0;container=1;pointerEvents=0;collapsible=0;recursiveResize=0;shape=mxgraph.aws4.group;grIcon=mxgraph.aws4.group_security_group;grStroke=0;strokeColor=#147EBA;fillColor=#E6F2F8;verticalAlign=top;align=left;spacingLeft=30;fontColor=#147EBA;dashed=0;" vertex="1" parent="1">
          <mxGeometry x="505.3" y="690" width="245.4" height="138.5" as="geometry" />
        </mxCell>
        <mxCell id="0yja2uZejNiCgg6DEzDY-59" value="{RDS Instance}" style="text;html=1;strokeColor=none;fillColor=none;align=center;verticalAlign=middle;whiteSpace=wrap;rounded=0;fontFamily=Verdana;" vertex="1" parent="0yja2uZejNiCgg6DEzDY-54">
          <mxGeometry x="2.5300000000000296" y="71" width="101.55" height="30" as="geometry" />
        </mxCell>
        <mxCell id="0yja2uZejNiCgg6DEzDY-56" value="" style="outlineConnect=0;dashed=0;verticalLabelPosition=bottom;verticalAlign=top;align=center;html=1;shape=mxgraph.aws3.rds_db_instance;fillColor=#2E73B8;gradientColor=none;" vertex="1" parent="1">
          <mxGeometry x="609.38" y="743" width="49.5" height="66" as="geometry" />
        </mxCell>
        <mxCell id="0yja2uZejNiCgg6DEzDY-57" value="" style="shape=image;verticalLabelPosition=bottom;labelBackgroundColor=default;verticalAlign=top;aspect=fixed;imageAspect=0;image=data:image/png,iVBORw0KGgoAAAANSUhEUgAAAyAAAADACAMAAADLAvdFAAAACXBIWXMAAAsTAAALEwEAmpwYAAAAeFBMVEVHcEw/P7IAAAAAAAAAAABbTeUAAAAAAAAVEjYAAAAWEzgAAAAAAAAAAAAAAABbTuUAAABbTeUAAAAAAAAVEzg/P7IAAAAAAABbTeQ/P7IAAAAAAAAAAAAAAABTSdVTSdZbTeRbTeQ/P7EAQOVcTuUAAABAQLJbTeVQ9zRNAAAAI3RSTlMA/vPj+/qw/gP9Cm7ZJL3Rm73O3hf4Mj90iYRLWusxVY2mw73y4WYAABqzSURBVHja7J0Jd5s4EIAxJojDUGpTu4vtptkX2f//H65O0AUSjo92mXmvRxwZxKBPMyONpOjbryjKIhAQEKd8Xj8KQAQEZETePq/XnxEgAgIyYkEIIm/voAgQECcgBA+CCIQiICBuQCgi5M8H+FkgIG5AmJ/FQhEQEBATEGFFIBQBARkDhIci31vws0BAXICIUOQ3hCIgIE5ASBgCoQgIyCggIlqHIV8QECcgfSgC2ScgIE5AiEAoAgIyAQgM+YKATAHyCaEICMgEIFceinxkgAgIADKGCPkbEuFBAJAJRCAUAQFAxhGBRHgQAORz2ohAIjwIAPLpD0VAQACQ0VDkF2gKBABxE/IJifAgAMgkJJB9AgKA+PysKwz5ggAgE1YEhnxBABBPKAKJ8CAAyJSf9Rt0BgKAQPYJCMhcQCghFJGf4GWBACAjQiIRAAQEABkfzXqFBQEiQf4SQD4lIE8cz8rY3UBA/iZAvj0ry5fe458VvCqQvwyQz+eMZ2VR9uvH5QKvCuRvA+QZU+vk6u2/l9XqB7yq10pGBQCZZ0HeHn3CIfOuLpfLjwu4WC8kw/MBADIGyIM3dqBXfV8RPFYrAORFdMh/i7at2rZYHiVfA+ShU+vkJr/+pXhcAJDX4ZEdunSXYCnxum7Kw4LGFL8EyOcDTzikQ7sEjxXHAwB5DR7lFtuCMD6nZQWAhAAi9vK995AvDz5WJPigfAAgryGkoTjkSZLkOWKS5/SnJGecACCBgDxgYwdy/XcSmHPv6gKAvMR8lASCJCFYUJMxmA/yIyElwWsAJBiQO2/soAUfFwDkNXzUBI+cwuB0shJcAyChgNx3YwcxtLv60eNxF0CKIruXFEvgY4dzigd2C0pws4wEubsA0m+g9fvLoQj99k8286HwcQ9Atvh+Uv7/28aG2AiMRjVAACkBkBmA3GtjB+pdqcHH/QDZACAzpCF8oHE+KCAHAGQWIPc44ZDnlVxMPO5kQZL8PvK/7zyz6IBHgg9lpLcFQGYCIo8VuXVjB1fwcVdA7mM+luBdnKkBmVJCjjHMpM8G5EsnHNLDet4vLvMBgDzbgJwIAJN8EF2eIwDkJkBYtD4/+4QHH248AJDnR+iTDhbVwXYhqzzvD8gte8zxvJLVyo0HAPJcA1JhR4DO5geZUOOymFHehwDCZ0XCTzgUeSUrOrR7uQAgrwakMw0IyzJJEsSenuWaLGaU9yGAvM0+4fB93LsCQJ4ulqoQfWhDjgDIFyzIjMPW7bwSAOTFgnGuGxA6aBU3x33bVtXhWDb1GuM9API1QMKyT6gb9o9Mar8AIH9KCGLYDzo3qrkD2WEpqwofB0hA9km/otbDBwDyTEAOODEjEHwSi9KFRMuRB1oQ7wmHmT/4AECeD0hpAILpmK6rb1uEvD0QEDkr4h7yFfuVBOABgDx9EGuZiYluC/J2fSQgfGrdzj6ZyCt5GCCj2VXIHPcnHyw1FyujiYo6IDmulgvIt+tcQmYC4gxF2H4llyDv6jXZvGix2bxZlJqAYLzkjV/f3/jExcMsiONYkem8kodZkBGrgJLEtiA4HjU3ycIAyZey/HxMfl9nITIbEHplmX0ipAgNPi5PWXJrjtuQNnFeamtwAZIsGQ+aBvWd+FlvjwOkT4T/EKaa71eyCubj0YAcbUBiAAQAURweHopcHwWIDEW+062oaXA+x3w8GpAMAAFAvFr5eQ2N1m8DhCLyRgCJGCA/ZuEBgAAgrzciMhR5GCDUhPSAzMIDAAFA/gRE2rBQ5GZANAsCgAAgfx8i728BoQgAYnz9D05OuiF16m6A/ClpW3Nq4S/50z/kC4AMip/+4EZf98ul3U0isHpfBsRxn7toJrsBjNCvh5alv/jwhSIAiKbDoqVSZCEvwtyi0XXRIrh0FFlnm+ql2KEeRPRzPTw1K9yAZJ7auPSi39rfRCeunmndga8q6mdFW+2rdrw7McqK+ma+Id8JKwKAcO1Vp65ex0PK67puTtVNfZ1y1eM2CS9dlOrK8P627eHUpdt1rG05He/q7rQPsVJZYwESzzFo7bFLN7Hy/XiTdsf2BgOpPdk+DVujJRt8sSfvZyfrEadHx+2lyopD2fRlk02391R1OhRZOiC8adbImbiF6lM2rt2uTlWpC/2qbZcrpwoUqV64M+pwqEnhVLtVti9TnnOW53ItR65l0Wy7ytVQonKoWXO2FhTi1JQ6deolO6Wxso5EvXecjmuGvIGtdvmtwgL7T7kml+j3cmxUPW5PVidB1HBWXiY/riE+6XeXZbs6HvQl/jmfpo2InBW5AiAu7Rxr3tUoB2cgfnAG+zyt3NrNrP2B+2bAukh6VfIuxY6FWWFuRaXVoaQtIFYWahTHZifecM43Vujr1p/rwV9+mdmp1elUpiZybRzn0MvBoRdNM/XBjQhNsdcv36maadk5JTHuSVAXLuT5RkOpLWvJhXqwCYVkGxnYVfJ8ILVsziq7aadNZfExOuS7aEDIg5/OrBHkyEiSZz9z7daVewFMiuNkkP6NM+g2DA+U99QUYgcRIT0g9Lcdoi8VKdu37foXnZsneljVw51Vs0apmblpHNIrwqtuL6E6rd160W69Prm1WhqaEa4j7eWrlF0XJ7inZqOWFjaXt/huh8XWK5oW6P/JcyXtoHBSdi3K5kZZRNNX8d7jTf76Rlm4AiC6VBvWNMfOzUBiA5DOQUgW1dqiLfHGGR70vbKrJn0/Wei+m9gMl+HBT7ahCzX6jpx13CNsGNUjdciPFiCzlpMZp4OQSu13U3qRtyYV3u2dLp52/1zwR/EQdhWpBy7spCvE/Di6wQr3e3dYMmqpAbHNvHDBcp1o2fVQFrnLehfBjIQiywWEn7rEmsFUI2SI7ApHMzABSfnr2m9pR4bEiyndgLDt1JlzJVuMtlKj9mzHrtYvTwwjYi+S8gKS6qt7GokH9miGtOzGIsRc5svVTx2ZVHYcVAH1AEii1qWJeBAvTsTCY4iSorsovCz2D0mw7BOwIINGUta1eBqiQKS1m4EGCCmzkY1A4qEeTGMBUtJB3cNZOfiJ/FWJEdAZLZy//fQLgOjH52RsNZpfL9yM0M4js2IgExAOftfjwUDYDP5kotblLD3UCQsmn7ubUTb1j9rxRHgARKhjO3nqktkEW6sZ6IBwB6lUG4HaT1qAkI6yqHvrIT48CkBOc1o4886aLwHSDUeoR22CfdZD7zxyQzUmIGyRb3RMVM2o70SzIHRPIu6hIm/PRVTHQ6WAsihg768+FFH9rOW6WNs57YBF1dmUi0UuFFVnrF9UegEmIKxDYzApHV+/uDGL9sbYrJcQNAwK3QJIOQwzFTjUvRs6D90BtXZSSUjbrA3NoMHn2Zl69Pt3ynBcaFnXZi5228myn8bU+mIBaWa0A+TQrwOQVDMI+p0NC5LjtdlksDKyU/jW0ZuvP1da6Q2AKJMP5zl8CNXEkceC1DG9C0LOM3sMC4KS4I5rTll2w6DZUX1N7jIBoYUwCm+ENBY21q6bgLCLJYYnnPdxt6PJmw4eUoLleBjZCSNE8bFvAGQ4gK2ex4cgpJ4ChMNvDqMPI+AmICj0xSA5thGooS4wgaBVQ5GlWhDsO3XJ0Ud7LAhKHBsOyX7SAESUto/p6CchZ41DsfvKgczZgPQbAdHgB83jQ3QeJ20YzLAgyDSsutna3WuPM183sAnOhVGGfBcJCJ8pQM7Zt+HUDKsH0g7RcADi+FYi+0kbELt0P1NoNfGhYiPtFyljtbMBQcMIBPaeRuXvPCwL4npYJfB5EiAo+Jy5bEiEXyYgWdTao5h81o1/M0/6sVd1zARPWRCPex8SVfSZ6HyqDcmTPPpJ8VyknTgoUaon8B9hXWFNZo9IP9DdbyC1Fq6ZOLPzcLpYjsmX5qmAcKduRqopS4T/vC4TELshWIdmmF4BwvoOWqGAdMGAqC31gNWEK/uytsvC56D7x1P3mfRsMzlMomX2cbhytn7Qi8ORRNpudEGAKAHXswBJ+Kb2wYjwvU+WGYNYZ2YwNwFvOnpqRlvty5R9zYyhd7MsCJ9IawIB4XMKMo5oh1+cN3XTlafj8UDkeCobmq+KXU69THnSkxVDpE8yNPoNkaZB0642dV1v1qLzN26OsD6V4gWEaWbjHOZ1p53R/EQUMncpyzpSThJ1sihI+DaMiwOEz8PZh8qkWrpOaTZCpJ8m7gVEZIFsgwBBPGofhpNowuu2KQ+ttjpDppA1NiFqriNbWMWF1tJcMFUpvxel+iFeZLU38ghlNdyapszafpuqYi8gMsUtABCRGJk4jfrMsv7JdOeQ7xIBqa39anPaNsViTbGurTjrASvSdymdBgQJPHDTRv6ZDdliNkN2bHmcXIxYbM1oenDQdLFXFOZjitubDhbTS10Zi/VoxqF5c/I9Jdt/EhD5sGnlAWTIVqfVPicuu+ksi88uG4vygKlCVyL87+W5WIaHxdpBZawdJD8gfTJCTbDzACLxGEbeJwCR1mN7cK1cHVuUt7HcoVxpo1NLbrF7/a993Gd/GFWW6QuTSnsSSQnTJwGReDQDzG5AZJ46XZzFDWlbjo2xDYFSnHasbHGKsZ3ov75lYeg734Z6OYDYPSU/dMnsfgtyIW0Bn+ZHTAEiG0GpuEajgLBIheKhrwz1rPQtHANx2oS4smolePPqje1h0WfInGnQloO3CXCxVDz6J3QA0htgXJfKsX8tdqTgGGUjNSXAAOQruz8tCZDSUB0ay9NZW3PlrRKKjgCiLCJR2tYYIPTtkja7OUTz1nizlj+ec3gLIJllWMe9duvmyizDKCAaHtGEBZEGoT6qhpSYQ0cSp8SjPmlGt2DdoDlre1uD6gG5/tfeua4pigNhmEZagqemgdFdxHHcpxnu/w7XHBBIKhBEImJ9v6a7GYWQN5VKKlVWAKFZrn+NCcihC5ClWlPmCJ4ZlKozNWIyNICU6z6p1OFhQESXWRyd/jmCMrV0VDgAECBC0pfDEKtrV3mubBPtbxuVICClqVzKlWBjFTY6ZrjpylEyu8itKPAI0kS5Vg3X8fNhFqSwYkE+aB2qv08ERJ1KaPqM0mUaXjoMiHi5S6UGFwQINBUzf8wkV9yA3SBAAOKWuuw6kP1atwIiHjZSzy8rgNDnOmUO1Con5VqK0hq4Vn0/188d0K/aEjs8EBBqPT7+/v33qYDIQ4s2EloasBpjNASIvhNAgFCYfHYk774EOiog0SBAQhWQoxaQo1obNGwBRLSMC5nKGHAWMk2jbORrgzxYgy6bynA+rHQQufz0KCtyHyAf3Hz899t5KiC5fgVGktdEqT6kAoDwwxFB5hD141bA5IDBlNxdY9Yz4LwPIIpRaAkQJ/Lz+PVYMAUQMRakYLeXAeH1johuHQHwK4jR8wwD5La1XowGiMDj13nUssPdgKxUQFLNHTUtul+P6wZNeKA1CEqHYjB5xwFtoRrCzQBAHCWCuD3FnB5PFRD+sDvNWCADQiMWiH6hLVcXrR0LgIit9R7zrJ6A0BIi9MJ/nXHLcncBQpytuj6qK1MoLWPVuyBkQfI81mTRAqZYQ2ZX4Hx8KCCxdKXXum+wUb590bqKFWjHglj7SYaAOJYA4VvrxnVy+wHywYtQ/bcau2r9QwGJZUAWrRYE2jXQWZDrRGI7rC0eDQj0efr7i5Su6uotSMDWi4nzyoCITJJQYofhgNScj7Ez6HcDoixnshQjhAAZnRVATi2ABMq59TZA6LxuWD3mxwMSdDr9lXb9AEn0D/tSFqRHhUNzQCrng4xfcflOQIzeR9ABSMsLAAAJBzbGowFxxwSkJaXIawByOVdBDmej8m3GgNycD2KjIPldgKSrLaQkbvaZZszqWwNCegKyfXVAvn6+k6pwg0mFQ0NArDkf9wNiLATkbgsyA0B+ij/VPCvpdkWMAOGzq49fvy3hcR8gLbHZzweEwIJ8BrQgYwJyxaE413ZFPjvWswwAEc7H3/PddWisAKIe09Yc6LYOSGurLdCC2AWk+PwpvsqhntQSO9wLyC2uhDj2qj/OaIrFw1IP63S5iwCp+51oQUa2INdJVfG9qlyR1gqHXYCUS7uJ49gsjjobQFghBV5bKQiC7vkfWpDRASl+is+mK8IrHP6Aa77tgJTOx9kuHiIjyDwsSMrOxAWeRj5aENsW5EoCReTzXP3+rHVF2gCxFVcyW0Bo7aucFeTzO1OXowWxCcjPT90VqeWYK3oAUgtqt156fhaAiOIlgTEcaEEsAcIQoa7IhdwQIRdwnqUFpIorIdbxmM0Uy7R4CVoQ24D8lK7IP44cfWIEiJ2g9rkDsjQuXoIWxDogDBKalVR1RYouQJ7ofMwHEJZk3e+dRBotiEVAxJKvGn1StALC40o+rMWVzNWC+P2KM6AFsQ+IuuTLA+ErRFRALAa1PxIQlhnDTFaiecvc7jlakClbED7P4q5IGX3yVd83lAGpOR9P5GNUC1Jv4jEtyEnOHYwWZJKAVEu+vOg9rXBYuSJNQFi2q7+240oeZUEWm4WJ4lM0PiBQjtxmnZApbBSiBRFW4keKPhHF1gsJENtB7Q8FhFYduON7RgMkVXMeBN7EQk3QguhckaR0RWqAlLOr30/H405ADv3ve8QplpReRBQvWUS75W5ZE1qQCQBSIvJZC4TnZUUaFkQEtZPn8zEHQIDk826m7rUv8EThFACpuyJV9AnbW69bEOp8kOfjYQaIP2FAwJyivMeMfGBKPaEYPS6ryawBKaNPmoHwDR/EdlD7EEC2EwdEzgjMitOsTDr0c/Nind7XgmiiT0pApuF8GAOSmBTWeCIgR6VLnwxHfJuZFfV5Hd8REIFIM/qk+BKATMP5MAQE7KvrKQEilS/xoaztjwcETIS36vM8O21u3ncAhCLyKbkinJZz4pDJ4GECiJMrg184MUB8kysfDUhoVjalNHOBeXb39wCknGddqnlWtaLyUoCYeLdPBCRVLEhqBZD1aPVB3gQQKPpkangYARIpRW7z1SwAGVb+AGg34wpTlIEDAgK5IlNTJyBgpZjUgHMyuSnWI+uDOGpZNTZtgrWUwin92iDz1oCUS77fyeRMhzkgmTw90FeZuP0n8kwfBHDSwY3CYYDQD1Sq3GZgldsMqHJ7chAQOfrkRQHZAkNl5OjSj5f7n8nBEiCZsh9xAnl1H2tBmGWVlrECRohSJz1TCpb7rXXS3wsQkfukuLkiL+eD0OpIvtwTojoM4t/Vj/s0kpp3PEAO6kbhtk4vv6kUCFYcCMihWRdeELJMmgOFkyxVPuorXghI6a1fpjjL6gYEqAPNeoKmBsI2CyN+WeMlWw012UjA7sNc6aTDp1hOoB4EoD/vsqpWYZLtcp6sVZ2k4hRLmmd9v6YF4Yv4QBG9fJceknKoXiX74zrcLfhbCLxA2m+3Gazos8K5ZRc9hjTdoheoAQHDAOFzLCVtMXvIYEMDiXcbNqlTTqL4ebP+LwLCTciLAgLMsepHLnzXdT0xu2cpPz2PJqiStxOthrtff1wswzQNl5HL/zeQE2g4IEmufCorxlt/Tg9It0J/3iIgYNqfVwSEbzUoJRB8nx3Tq94qO7cXiHmGL/U/uwem6r+g9wSlBBo+xVJWb28tU55nDKBsKz6rj41TrNkAImYx8ov2eRmEgEspfyC9C7tHbukwfuuimoxAgwERJqTvaXj2P5LqYRCQlwdE5A3p1xP8ppc+ZtIG9660EsMtiDCtPdvFlwrNIyAzsCBsl61nR2h66WOm/QnvTPszeIrFe2svQhgfi9atTgTk5QBhm4V9e0KzS48JyF0znUcAwoKserULX/9LmssXCMjLWxAidoP9XoBsbPgghiaEeUyNix5hQagD1IcQzkezxjMCMocplnN9iz3HyubLGDd5dd5BiM83KPyHT7Fo89HnMmoYetH1WunAMgIyD0AYIeYp1Nlwva2v1YwHCN3KzFuyVzM8fHlD+yGAiNmnkXGlm0dBrvR9BGQmgNCx0hAR2iMDz60fzR25PkhKexV8ZwyP65dFUud/DCD0+HQkEPE7Fnfp3mqkHLdGQOYCCCvj5HsdlQZ8voXI9tbThwHSdc6XhPAMkKNK88gdHen0uhaQvBcg9K7WfMtcjwj9E9tgX0Ph8Gv1PAECMh1A9rmSlN3V9YT95rY1DW8hs01kHniyy4jsgzQT5uZBKyCNawO36yB8qoR1sJsMWL+MMz4Zqt1AoAXE/C5v7eKEzMp5aq140So85iB0HOioylr+Tq8NkI38vvLYMb+2FRA5oTECIrzM3Hzo2C/5jMcT9TIrBeINUC3Cg/I9UZ+vWSnXBsuOYOj9ScBbvyHWWZd70TGlIXIDjOa7PndZQ4SseQVqpWHYb+ifTmsCHjMjzABJ2usf9qRcrE83tDB+GgpIjhYEtCCenJX9FLUNliTbBc34K2ZSbhY/So8sxFc+VRi6m3hT16Il98Mqbl4bb9zuY75r3h+C+h15y+x2407oxbXc8+4SWjEOYqkxYmLUjPQQTKwEppW/iNO94+hiZTK5ZTZuiwXZuc07jN2dY3rt4rTQPkCjcbgQkHuAotquw0gZyRZRuD6URbbIU+5sn27qFmK53jq2boZ9x+qQ7mKpWeJdelg5jtNapHd2eltA6v0t2R6OxyzLjsfDNiG3PxHyVHiT/fWerne0ku7WXruQ7f7A2uWwF3dBJpULDQGx0BcI1DfJsxNyEykDmfXbgb6RvBscCEjt1dfSp0/spqbRLs6bCgFBoRAQFAoBQaEQEBQKAUGhEBAUCgFBoRAQFGrGgBQICArVBkiBgKBQoC68RmeBgKBQkM5XC9JrloWAoN5L/9DyaubzLAQE9U6ixycvfRBBQFBvh8jvL+qKICAo1GBXBAFBvaMRKV0RBASFAhFZfbMlXwQEhWpxRQoEBIXSzLPO3etZCAjqnRH504UIAoJ6a0QS4YoUCAgKBUHS7oogIKg3NyKEtEWfICAonGc5F+2uCAKCQkTK6BMEBIXSSBN9goCgUC3RJwgICiUQIRc1yhcBQaGarkiBgKBQhq4IAoJCNVyRPw1XBAFBoZqIrOrRJwgICqVxRQoEBIUCGblFnyAgKFSLK4KAoFAgIjwQHgFBoXSuCFoQFEpLCKHRJwUCgkLpXZFL8YUNgULp51l/sBlQL6X/ATKf6sapqyQbAAAAAElFTkSuQmCC;" vertex="1" parent="1">
          <mxGeometry x="40" y="240" width="129.17" height="31" as="geometry" />
        </mxCell>
        <mxCell id="0yja2uZejNiCgg6DEzDY-61" value="" style="endArrow=none;html=1;rounded=0;strokeWidth=2;" edge="1" parent="1" source="0yja2uZejNiCgg6DEzDY-48">
          <mxGeometry width="50" height="50" relative="1" as="geometry">
            <mxPoint x="453" y="525" as="sourcePoint" />
            <mxPoint x="450" y="490" as="targetPoint" />
          </mxGeometry>
        </mxCell>
        <mxCell id="0yja2uZejNiCgg6DEzDY-64" value="" style="endArrow=blockThin;html=1;rounded=0;strokeWidth=2;startArrow=none;startFill=0;exitX=0.155;exitY=0.388;exitDx=0;exitDy=0;exitPerimeter=0;endFill=1;" edge="1" parent="1">
          <mxGeometry width="50" height="50" relative="1" as="geometry">
            <mxPoint x="468.2299999999999" y="588.2260000000001" as="sourcePoint" />
            <mxPoint x="602" y="589" as="targetPoint" />
          </mxGeometry>
        </mxCell>
        <mxCell id="0yja2uZejNiCgg6DEzDY-65" value="&lt;font style=&quot;font-size: 17px;&quot; face=&quot;Verdana&quot;&gt;&lt;b&gt;AWS Autoscaling with Launch Templates using Terraform&lt;/b&gt;&lt;/font&gt;" style="text;html=1;strokeColor=none;fillColor=none;align=center;verticalAlign=middle;whiteSpace=wrap;rounded=0;" vertex="1" parent="1">
          <mxGeometry x="482" y="144" width="340" height="50" as="geometry" />
        </mxCell>
        <mxCell id="0yja2uZejNiCgg6DEzDY-66" value="TF.* ASG Resource" style="rounded=1;whiteSpace=wrap;html=1;fillColor=#e1d5e7;strokeColor=#9673a6;" vertex="1" parent="1">
          <mxGeometry x="840" y="200" width="180" height="30" as="geometry" />
        </mxCell>
        <mxCell id="0yja2uZejNiCgg6DEzDY-67" value="AWS ASG Launch Templates" style="rounded=1;whiteSpace=wrap;html=1;fillColor=#e1d5e7;strokeColor=#9673a6;fontStyle=1" vertex="1" parent="1">
          <mxGeometry x="840" y="237" width="180" height="30" as="geometry" />
        </mxCell>
        <mxCell id="0yja2uZejNiCgg6DEzDY-68" value="AWS ASG Instance Refresh" style="rounded=1;whiteSpace=wrap;html=1;fillColor=#e1d5e7;strokeColor=#9673a6;" vertex="1" parent="1">
          <mxGeometry x="840" y="276" width="180" height="30" as="geometry" />
        </mxCell>
        <mxCell id="0yja2uZejNiCgg6DEzDY-69" value="AWS ASG Lifecycle Hooks" style="rounded=1;whiteSpace=wrap;html=1;fillColor=#e1d5e7;strokeColor=#9673a6;" vertex="1" parent="1">
          <mxGeometry x="840" y="316" width="180" height="30" as="geometry" />
        </mxCell>
        <mxCell id="0yja2uZejNiCgg6DEzDY-70" value="AWS ASG TTSP" style="rounded=1;whiteSpace=wrap;html=1;fillColor=#e1d5e7;strokeColor=#9673a6;" vertex="1" parent="1">
          <mxGeometry x="840" y="355" width="180" height="30" as="geometry" />
        </mxCell>
        <mxCell id="0yja2uZejNiCgg6DEzDY-71" value="AWS ASG Scheduled Actions" style="rounded=1;whiteSpace=wrap;html=1;fillColor=#e1d5e7;strokeColor=#9673a6;" vertex="1" parent="1">
          <mxGeometry x="840" y="394" width="180" height="30" as="geometry" />
        </mxCell>
        <mxCell id="0yja2uZejNiCgg6DEzDY-72" value="AWS ASG Notifications" style="rounded=1;whiteSpace=wrap;html=1;fillColor=#e1d5e7;strokeColor=#9673a6;" vertex="1" parent="1">
          <mxGeometry x="840" y="431" width="180" height="30" as="geometry" />
        </mxCell>
        <mxCell id="0yja2uZejNiCgg6DEzDY-73" value="AWS Auto Scaling Tests" style="rounded=1;whiteSpace=wrap;html=1;fillColor=#e1d5e7;strokeColor=#9673a6;" vertex="1" parent="1">
          <mxGeometry x="841" y="470.25" width="180" height="30" as="geometry" />
        </mxCell>
      </root>
    </mxGraphModel>
  </diagram>
</mxfile>
